<svg width="48" height="48" viewBox="0 0 48 48" fill="none" xmlns="http://www.w3.org/2000/svg">
<path d="M32.9483 29.2813C33.2859 28.7086 33.464 28.0559 33.464 27.391C33.464 26.7261 33.2859 26.0733 32.9483 25.5006L27.3173 15.7564C26.9873 15.1808 26.5103 14.7033 25.9352 14.3727C25.3599 14.0423 24.7073 13.8708 24.044 13.8757C23.3821 13.8715 22.7309 14.0435 22.1574 14.374C21.5839 14.7044 21.1086 15.1815 20.7803 15.7564L15.1395 25.5006C14.8048 26.0744 14.6286 26.7268 14.6286 27.391C14.6286 28.0553 14.8048 28.7076 15.1395 29.2813C15.469 29.8581 15.9455 30.337 16.5206 30.6691C17.0958 31.0013 17.7489 31.1748 18.413 31.1718H29.6845C30.3472 31.1741 30.9987 31.0002 31.5721 30.6681C32.1455 30.3359 32.6204 29.8573 32.9483 29.2813ZM17.7308 27.7807C17.6604 27.6629 17.6233 27.5283 17.6233 27.391C17.6233 27.2538 17.6604 27.119 17.7308 27.0012L23.3716 17.257C23.4382 17.1375 23.5358 17.0383 23.6542 16.9696C23.7725 16.901 23.9073 16.8657 24.044 16.8672C24.182 16.866 24.3179 16.9014 24.4377 16.9698C24.5575 17.0384 24.6569 17.1374 24.726 17.257L30.3569 27.0012C30.4273 27.119 30.4644 27.2538 30.4644 27.391C30.4644 27.5283 30.4273 27.6629 30.3569 27.7807C30.2903 27.9002 30.1927 27.9995 30.0744 28.0681C29.956 28.1367 29.8213 28.1721 29.6845 28.1705H18.413C18.2749 28.1718 18.1391 28.1364 18.0193 28.0678C17.8995 27.9994 17.7998 27.9003 17.7308 27.7807ZM27.9311 37.067C25.6348 37.7514 23.1986 37.8187 20.868 37.2619C20.4831 37.1708 20.0776 37.2353 19.7402 37.4415C19.4027 37.6477 19.1603 37.9789 19.0656 38.363C19.0193 38.5544 19.0115 38.753 19.0423 38.9475C19.0732 39.1419 19.1422 39.3282 19.2454 39.4958C19.3487 39.6634 19.4841 39.8089 19.6438 39.9239C19.8036 40.0389 19.9844 40.1211 20.1761 40.1657C21.4517 40.4772 22.76 40.6342 24.0731 40.6334C25.6732 40.6323 27.2648 40.3993 28.7981 39.9417C29.1732 39.8228 29.4861 39.5604 29.6686 39.2118C29.8511 38.8631 29.8884 38.4564 29.7723 38.0804C29.6615 37.7025 29.4057 37.3837 29.0606 37.194C28.7157 37.0041 28.3096 36.9584 27.9311 37.067ZM19.7085 10.933C19.8534 10.9321 19.9976 10.9124 20.1373 10.8745C22.4323 10.1837 24.8694 10.1131 27.2004 10.6699C27.3918 10.7162 27.5902 10.7242 27.7846 10.6933C27.979 10.6624 28.1653 10.5933 28.3329 10.49C28.5004 10.3867 28.646 10.2514 28.761 10.0915C28.8759 9.93178 28.958 9.75072 29.0027 9.55904C29.0489 9.3677 29.0571 9.16908 29.0262 8.97465C28.9954 8.78021 28.926 8.59389 28.8228 8.42629C28.7196 8.25869 28.5842 8.11317 28.4244 7.99819C28.2647 7.88322 28.0838 7.80103 27.8921 7.75638C26.6154 7.45372 25.3073 7.30331 23.9952 7.30817C22.3855 7.30919 20.7842 7.54216 19.2409 7.99998C18.8651 8.1209 18.552 8.3851 18.3697 8.73532C18.1873 9.08554 18.1503 9.49347 18.2667 9.87082C18.361 10.1794 18.5521 10.4493 18.8119 10.6406C19.0716 10.832 19.386 10.9345 19.7085 10.933ZM14.7108 36.0147C14.9828 35.7243 15.1292 35.3382 15.1183 34.9404C15.1073 34.5427 14.9399 34.1653 14.6524 33.8904C12.9143 32.2404 11.638 30.1644 10.9502 27.8685C10.8315 27.4933 10.5693 27.1803 10.2207 26.9978C9.87216 26.8153 9.46553 26.778 9.08958 26.8941C8.71448 27.0129 8.40156 27.2751 8.21906 27.6238C8.03655 27.9725 7.99928 28.3791 8.11536 28.7552C8.94573 31.556 10.5018 34.0874 12.6259 36.0925C12.8888 36.3449 13.2359 36.4908 13.6001 36.5019C13.8087 36.5012 14.015 36.4577 14.2062 36.3739C14.3972 36.29 14.5691 36.1678 14.7108 36.0147ZM7.84255 20.112C7.75439 20.4981 7.82152 20.9035 8.02926 21.2407C8.23699 21.5779 8.56884 21.8199 8.9533 21.9148C9.07 21.9244 9.18717 21.9244 9.30388 21.9148C9.64138 21.9144 9.96874 21.7994 10.2324 21.5888C10.4962 21.3781 10.6805 21.0843 10.7555 20.7552C11.3107 18.4315 12.4664 16.2945 14.1067 14.5578C14.2423 14.4155 14.3485 14.2477 14.419 14.0642C14.4895 13.8806 14.523 13.6849 14.5175 13.4884C14.512 13.2919 14.4679 13.0983 14.3874 12.919C14.3069 12.7396 14.1917 12.5779 14.0484 12.4433C13.7598 12.1718 13.3754 12.0256 12.9793 12.0366C12.5833 12.0475 12.2075 12.2148 11.9342 12.5018C9.93245 14.6171 8.52148 17.2212 7.84255 20.0536V20.112ZM40.255 27.8003C40.3013 27.6088 40.3092 27.4102 40.2782 27.2158C40.2474 27.0214 40.1784 26.8351 40.0752 26.6675C39.9719 26.4998 39.8365 26.3544 39.6768 26.2394C39.517 26.1244 39.3362 26.0422 39.1445 25.9976C38.7585 25.9093 38.353 25.9764 38.0159 26.1842C37.6787 26.3919 37.4368 26.7239 37.3421 27.1084C36.7843 29.441 35.6218 31.5853 33.9713 33.3252C33.8357 33.4676 33.7297 33.6353 33.6592 33.8189C33.5888 34.0024 33.5551 34.1982 33.5605 34.3947C33.5659 34.5912 33.6104 34.7847 33.6908 34.9641C33.7714 35.1435 33.8866 35.3052 34.0298 35.4397C34.3049 35.7036 34.6715 35.8502 35.0526 35.849C35.2558 35.8495 35.4571 35.8092 35.6445 35.7306C35.832 35.6519 36.0017 35.5364 36.1438 35.391C38.1534 33.2709 39.571 30.66 40.255 27.8197V27.8003ZM33.3671 11.9075C33.2304 12.0492 33.1233 12.2167 33.052 12.4003C32.9808 12.584 32.9469 12.78 32.9524 12.9769C32.9578 13.1738 33.0026 13.3677 33.0839 13.5471C33.1651 13.7266 33.2813 13.8879 33.4257 14.0219C35.1634 15.6738 36.4425 17.749 37.1375 20.0438C37.2296 20.3526 37.4186 20.6235 37.6764 20.8165C37.9344 21.0096 38.2475 21.1144 38.5696 21.1157C38.7154 21.1176 38.8602 21.0946 38.9982 21.0475C39.1847 20.9898 39.3579 20.8957 39.5079 20.7708C39.6579 20.646 39.7817 20.4925 39.8723 20.3196C39.9628 20.1466 40.0183 19.9575 40.0355 19.763C40.0526 19.5685 40.0312 19.3725 39.9724 19.1864C39.13 16.3886 37.5719 13.8593 35.4521 11.8489C35.1649 11.5863 34.7868 11.4457 34.3978 11.4566C34.0088 11.4675 33.6393 11.6292 33.3671 11.9075ZM8.09585 9.5883C8.29306 9.5891 8.48844 9.55068 8.67073 9.47541C8.85301 9.40015 9.01864 9.28945 9.15784 9.14973L9.82022 8.51646C10.1112 8.2471 10.2838 7.87341 10.3002 7.4772C10.3166 7.08099 10.1757 6.69444 9.90797 6.40191C9.77539 6.25666 9.61517 6.13909 9.43684 6.05601C9.25856 5.97293 9.06562 5.92595 8.86909 5.9178C8.67257 5.90964 8.47639 5.94052 8.29184 6.00855C8.10729 6.07659 7.93801 6.18048 7.79379 6.31425C7.53075 6.54811 7.27742 6.7917 7.03386 7.03531C6.89454 7.17386 6.78418 7.33859 6.70873 7.52003C6.63327 7.70147 6.59432 7.89601 6.59432 8.09252C6.59432 8.28903 6.63327 8.48358 6.70873 8.66502C6.78418 8.84646 6.89454 9.01118 7.03386 9.14973C7.17274 9.28989 7.33838 9.40094 7.52074 9.47625C7.7031 9.55155 7.89857 9.58964 8.09585 9.5883ZM15.3732 4.71617C15.5743 4.71984 15.7738 4.67995 15.9579 4.59925C16.2307 4.48232 16.5228 4.37505 16.8054 4.26786C16.9926 4.19962 17.1645 4.0948 17.3108 3.95943C17.457 3.82405 17.5748 3.6609 17.6573 3.47947C17.7398 3.29804 17.7855 3.10205 17.7915 2.90281C17.7974 2.70358 17.7636 2.50504 17.692 2.31901C17.6249 2.13092 17.5206 1.95826 17.3855 1.81122C17.2503 1.66419 17.0872 1.54589 16.9055 1.46318C16.7238 1.38047 16.5271 1.33513 16.3275 1.32984C16.1279 1.32455 15.9295 1.35941 15.7436 1.43238C15.4123 1.54931 15.0909 1.676 14.7694 1.81241C14.407 1.96725 14.1202 2.2584 13.9707 2.62305C13.8212 2.98769 13.821 3.39658 13.9704 3.76126C14.0829 4.03958 14.2774 4.27716 14.528 4.44248C14.7785 4.6078 15.0732 4.693 15.3732 4.68691V4.71617ZM32.0228 4.55049L32.8605 4.92077C33.0587 5.01337 33.2752 5.06002 33.4939 5.0572C33.7789 5.05725 34.0578 4.97563 34.2978 4.82193C34.5378 4.66822 34.7288 4.44886 34.848 4.18995C35.0018 3.83365 35.0116 3.43164 34.8754 3.06827C34.7391 2.70489 34.4675 2.4084 34.1173 2.2411L33.1431 1.82217C32.776 1.67391 32.3654 1.67671 32.0005 1.83002C31.6356 1.98333 31.3458 2.27472 31.1946 2.64065C31.0651 3.00053 31.0788 3.39635 31.2329 3.74639C31.3871 4.09643 31.6699 4.37384 32.0228 4.52123V4.55049ZM43.7135 16.7308C43.8217 17.0158 44.0135 17.2615 44.2639 17.4354C44.5143 17.6094 44.8115 17.7034 45.1164 17.7052C45.2932 17.7067 45.4686 17.6737 45.6327 17.6077C45.8208 17.5406 45.9933 17.4364 46.1403 17.3012C46.2873 17.1661 46.4058 17.0028 46.4885 16.821C46.5711 16.6393 46.6164 16.4427 46.6216 16.2431C46.627 16.0434 46.5921 15.8448 46.5192 15.6589C46.4023 15.3373 46.2757 15.006 46.1393 14.6845C45.9845 14.322 45.6933 14.0352 45.3287 13.8856C44.9642 13.7362 44.5555 13.7362 44.1909 13.8855C43.8285 14.0404 43.5417 14.3316 43.3922 14.6962C43.2427 15.0609 43.2425 15.4697 43.3919 15.8344C43.5478 16.1364 43.6551 16.419 43.7623 16.7015L43.7135 16.7308ZM2.99093 24.0487C2.99093 23.7564 2.99093 23.464 2.99093 23.1717C3.00008 22.9751 2.9701 22.7786 2.90292 22.5936C2.83576 22.4086 2.73281 22.2388 2.59967 22.0938C2.46653 21.9489 2.30594 21.8316 2.12731 21.7491C1.94868 21.6665 1.7555 21.6202 1.55885 21.6127C1.16155 21.5994 0.775123 21.7434 0.483306 22.0134C0.191489 22.2833 0.0177325 22.6575 0 23.0548C0 23.3764 0 23.7174 0 24.0292C0.00257288 24.4255 0.161789 24.8047 0.442872 25.084C0.723955 25.3634 1.10412 25.5201 1.50035 25.5201C1.70062 25.5253 1.89985 25.4903 2.0864 25.4172C2.27294 25.3441 2.44312 25.2345 2.5866 25.0946C2.73006 24.9547 2.84389 24.7876 2.92172 24.6029C2.99954 24.4183 3.03976 24.2198 3.03969 24.0195L2.99093 24.0487ZM23.9269 2.99143H24.9012C25.2874 2.99418 25.6593 2.84602 25.9378 2.57844C26.2162 2.31086 26.3791 1.94506 26.3918 1.55905C26.401 1.36243 26.3709 1.16586 26.3038 0.980851C26.2366 0.795834 26.1337 0.625971 26.0005 0.481026C25.8674 0.336082 25.7068 0.219011 25.5281 0.136433C25.3496 0.0538563 25.1563 0.00750615 24.9597 0H23.9855H23.8978C23.5006 0.00512539 23.1216 0.166455 22.8426 0.449148C22.5636 0.731842 22.4071 1.11307 22.4072 1.51028C22.4223 1.90404 22.5909 2.27627 22.8766 2.54751C23.1624 2.81876 23.5428 2.96754 23.9367 2.96217L23.9269 2.99143ZM24.0245 45.0085H23.1378C22.9412 44.9994 22.7448 45.0293 22.5598 45.0965C22.3748 45.1637 22.205 45.2668 22.0601 45.3999C21.9152 45.5331 21.798 45.6937 21.7155 45.8723C21.6329 46.051 21.5867 46.2443 21.5792 46.441C21.57 46.6376 21.5998 46.834 21.6669 47.0191C21.7341 47.2041 21.8373 47.374 21.9705 47.5189C22.1036 47.6639 22.2642 47.781 22.4428 47.8636C22.6214 47.9461 22.8146 47.9925 23.0113 48H23.9855C24.182 48 24.3767 47.9612 24.5582 47.8857C24.7397 47.8101 24.9044 47.6993 25.0429 47.5599C25.1815 47.4204 25.2909 47.2549 25.3652 47.0729C25.4396 46.8909 25.4773 46.696 25.4761 46.4994C25.4844 46.1138 25.3427 45.7399 25.0811 45.4564C24.8194 45.1729 24.458 45.0019 24.0731 44.9793L24.0245 45.0085ZM38.8522 38.8502C38.6378 39.0646 38.4233 39.2789 38.1993 39.4836C38.0533 39.6156 37.9352 39.7752 37.8513 39.9532C37.7674 40.1312 37.7193 40.3239 37.7102 40.5205C37.7012 40.7172 37.7313 40.9136 37.7985 41.0985C37.8657 41.2835 37.9689 41.4532 38.102 41.598C38.2423 41.7505 38.4123 41.8723 38.6017 41.9561C38.7911 42.0399 38.9957 42.0839 39.2028 42.0853C39.5654 42.076 39.9121 41.9338 40.177 41.6858C40.44 41.4519 40.6933 41.2083 40.9369 40.9647C41.0762 40.8261 41.1868 40.6614 41.2622 40.4799C41.3377 40.2985 41.3767 40.104 41.3767 39.9075C41.3767 39.711 41.3377 39.5164 41.2622 39.3349C41.1868 39.1535 41.0762 38.9889 40.9369 38.8502C40.6623 38.5922 40.3014 38.446 39.9246 38.4406C39.5479 38.4352 39.1828 38.571 38.9009 38.821L38.8522 38.8502ZM45.3696 31.2302C45.1886 31.1552 44.9945 31.1167 44.7986 31.1168C44.6027 31.1168 44.4087 31.1555 44.2278 31.2305C44.0468 31.3057 43.8824 31.4157 43.7439 31.5544C43.6056 31.6932 43.496 31.8578 43.4212 32.0389C43.3043 32.3215 43.1777 32.6042 43.0511 32.877C42.8941 33.2318 42.8816 33.6339 43.0162 33.9977C43.1507 34.3617 43.422 34.6588 43.7721 34.8259C43.9701 34.9185 44.1865 34.965 44.4052 34.9622C44.6903 34.9626 44.9697 34.8824 45.211 34.7306C45.4524 34.5789 45.6458 34.362 45.769 34.1049C45.9152 33.7931 46.0517 33.4617 46.1881 33.1304C46.3359 32.7719 46.3382 32.3698 46.1945 32.0096C46.0508 31.6494 45.7724 31.3593 45.4184 31.201L45.3696 31.2302ZM40.9076 6.96704C40.7698 6.8265 40.6053 6.71495 40.4239 6.63874C40.2423 6.56253 40.0475 6.52324 39.8507 6.52324C39.6538 6.52324 39.4589 6.56253 39.2774 6.63874C39.0959 6.71495 38.9315 6.8265 38.7936 6.96704C38.6532 7.10491 38.5416 7.2695 38.4654 7.45103C38.3892 7.63257 38.3498 7.82749 38.3498 8.02436C38.3498 8.22125 38.3892 8.41617 38.4654 8.59769C38.5416 8.77923 38.6532 8.9437 38.7936 9.08158C39.008 9.29595 39.2222 9.52012 39.4268 9.74419C39.5679 9.89482 39.7386 10.0149 39.9279 10.097C40.1172 10.1792 40.3214 10.2216 40.5277 10.2217C40.8898 10.2089 41.2353 10.0671 41.502 9.82214C41.793 9.5528 41.9655 9.17922 41.982 8.78302C41.9984 8.38681 41.8574 8.00013 41.5898 7.70761C41.4729 7.43477 41.1999 7.1815 40.9564 6.93789L40.9076 6.96704ZM48 23.8928C47.9949 23.4972 47.8351 23.1196 47.5546 22.8408C47.2739 22.562 46.8951 22.4045 46.4996 22.402C46.1017 22.4071 45.7215 22.5682 45.441 22.8506C45.1604 23.1329 45.0021 23.5141 44.9995 23.9123V23.9999C44.9995 24.302 44.9995 24.6139 44.9995 24.9159C44.9863 25.3117 45.1289 25.6969 45.3968 25.9885C45.6646 26.2801 46.0362 26.4548 46.4316 26.475H46.4996C46.8858 26.4778 47.2577 26.3296 47.5362 26.062C47.8146 25.7944 47.9775 25.4287 47.9902 25.0427C47.9902 24.7016 47.9902 24.3507 47.9902 23.9999L48 23.8928ZM32.0521 43.3812L31.2044 43.7126C31.0163 43.7799 30.8435 43.884 30.6961 44.0189C30.5488 44.1539 30.43 44.317 30.3465 44.4985C30.263 44.68 30.2166 44.8764 30.21 45.0761C30.2033 45.2758 30.2368 45.4748 30.3082 45.6614C30.4164 45.9466 30.6082 46.1922 30.8585 46.3662C31.109 46.54 31.4062 46.6341 31.711 46.6359C31.8878 46.6375 32.0633 46.6043 32.2274 46.5384L33.2016 46.168C33.564 46.0131 33.8516 45.7225 34.0027 45.3584C34.1537 44.9942 34.1565 44.5854 34.0103 44.2192C33.8648 43.8576 33.5833 43.5674 33.2264 43.4107C32.8694 43.2541 32.4653 43.2435 32.1006 43.3812H32.0521ZM4.26722 31.1912C4.20012 31.0031 4.09575 30.8304 3.96063 30.6834C3.82552 30.5364 3.6624 30.4181 3.48066 30.3353C3.29892 30.2527 3.10229 30.2073 2.90269 30.202C2.7031 30.1967 2.50464 30.2316 2.31877 30.3045C2.1299 30.3706 1.95635 30.474 1.80859 30.6089C1.66084 30.7438 1.54181 30.9074 1.45896 31.0895C1.3761 31.2716 1.3311 31.4686 1.32648 31.6687C1.32185 31.8687 1.35772 32.0676 1.43208 32.2534C1.54899 32.5749 1.67577 32.9063 1.81216 33.2278C1.92435 33.4997 2.11481 33.7319 2.35945 33.895C2.60408 34.0581 2.89172 34.1447 3.18573 34.1437C3.3832 34.1435 3.57872 34.1037 3.76061 34.0268C3.94173 33.952 4.10641 33.8424 4.2451 33.704C4.38379 33.5655 4.49371 33.4011 4.56881 33.2201C4.64391 33.0391 4.68269 32.845 4.68275 32.649C4.6828 32.4531 4.64429 32.259 4.56928 32.0779C4.53032 31.7661 4.45237 31.4738 4.31598 31.1912H4.26722ZM4.20871 13.145C3.85398 12.9879 3.45203 12.9754 3.08821 13.11C2.72439 13.2446 2.42737 13.5158 2.26026 13.866C2.11413 14.1876 1.96807 14.5092 1.84141 14.8404C1.69261 15.2064 1.69408 15.6161 1.84546 15.9809C1.99684 16.3457 2.28576 16.6363 2.64986 16.7893C2.83364 16.8587 3.02832 16.8949 3.22474 16.8965C3.52624 16.8908 3.81921 16.7949 4.06576 16.6212C4.31232 16.4476 4.5011 16.204 4.60806 15.9221C4.72497 15.6395 4.84199 15.3569 4.97839 15.0841C5.12992 14.73 5.13946 14.3313 5.00527 13.9703C4.87107 13.6094 4.60344 13.314 4.25747 13.145H4.20871ZM8.53421 38.1876C8.26624 37.8952 7.89358 37.7208 7.49743 37.7026C7.10127 37.6843 6.71393 37.8237 6.42022 38.0902C6.27469 38.2237 6.15687 38.3845 6.07367 38.5637C5.99048 38.7428 5.94363 38.9367 5.93549 39.1341C5.92734 39.3314 5.95819 39.5285 6.02634 39.7139C6.09449 39.8992 6.19842 40.0693 6.33245 40.2144C6.56627 40.4677 6.80981 40.7211 7.05337 40.9647C7.19109 41.1036 7.35513 41.214 7.53572 41.2893C7.71632 41.3646 7.90996 41.4033 8.10561 41.4033C8.30281 41.404 8.4982 41.3656 8.68048 41.2904C8.86276 41.2151 9.0284 41.1044 9.1676 40.9647C9.44722 40.6819 9.60403 40.3003 9.60403 39.9026C9.60403 39.5049 9.44722 39.1233 9.1676 38.8405C9.00198 38.6262 8.78755 38.4312 8.58297 38.1876H8.53421ZM15.9872 43.391C15.7046 43.2741 15.422 43.1571 15.1395 43.0207C14.7832 42.8669 14.3813 42.8571 14.018 42.9933C13.6548 43.1296 13.3583 43.4013 13.191 43.7515C13.0372 44.1079 13.0274 44.5099 13.1637 44.8734C13.2999 45.2367 13.5716 45.5331 13.9217 45.7004C14.2334 45.8465 14.5549 45.9927 14.8959 46.1195C15.0778 46.1964 15.2733 46.2361 15.4708 46.2364C15.7723 46.2306 16.065 46.1348 16.3116 45.9612C16.5582 45.7875 16.7472 45.5439 16.8541 45.2619C16.9765 44.9042 16.9604 44.5136 16.8089 44.1671C16.6574 43.8207 16.3814 43.5438 16.0356 43.391H15.9872Z" fill="url(#paint0_linear)"/>
<defs>
<linearGradient id="paint0_linear" x1="24.3556" y1="47.7468" x2="24.3556" y2="0" gradientUnits="userSpaceOnUse">
<stop stop-color="#FAC10D"/>
<stop offset="1" stop-color="#F05A28"/>
</linearGradient>
</defs>
</svg>
