<svg width="21" height="21" viewBox="0 0 21 21" fill="none" xmlns="http://www.w3.org/2000/svg">
<g clip-path="url(#clip0)">
<path d="M19.0605 1.25928H1.81055C1.3957 1.25928 1.06055 1.59443 1.06055 2.00928V19.2593C1.06055 19.6741 1.3957 20.0093 1.81055 20.0093H19.0605C19.4754 20.0093 19.8105 19.6741 19.8105 19.2593V2.00928C19.8105 1.59443 19.4754 1.25928 19.0605 1.25928ZM18.123 18.3218H2.74805V2.94678H18.123V18.3218Z" fill="#595959"/>
<path fill-rule="evenodd" clip-rule="evenodd" d="M11.1589 16.6343L9.05474 16.6255C6.63361 16.6167 5.30713 14.6944 5.30713 12.2704V8.99525C5.30713 6.57412 6.6835 4.63428 9.10463 4.63428H11.1707C13.5683 4.63428 15.5258 6.53303 15.5639 8.92188H12.5001V8.71058C12.5001 7.75387 11.7165 6.9703 10.7598 6.9703H10.1875C9.23083 6.9703 8.44726 7.75387 8.44726 8.71058V12.3232C8.44726 13.2799 9.23083 14.0635 10.1875 14.0635H10.7598C11.7165 14.0635 12.5001 13.2799 12.5001 12.3232V12.2645H15.5639V12.2674C15.5639 14.6886 13.583 16.6372 11.1619 16.6284L11.1589 16.6343Z" fill="#595959"/>
</g>
<defs>
<clipPath id="clip0">
<rect width="20" height="20" fill="white" transform="translate(0.435547 0.634277)"/>
</clipPath>
</defs>
</svg>
