<svg xmlns="http://www.w3.org/2000/svg" xmlns:xlink="http://www.w3.org/1999/xlink" contentStyleType="text/css" height="636px" preserveAspectRatio="none" style="width:2082px;height:636px;background:#FFFFFF;" version="1.1" viewBox="0 0 2082 636" width="2082px" zoomAndPan="magnify"><defs/><g><!--cluster ad1943a9fd6d3d7ee1e6af41a5b0d3e7--><g id="cluster_ad1943a9fd6d3d7ee1e6af41a5b0d3e7"><polygon fill="none" points="514,16,524,6,732,6,732,517.78,722,527.78,514,527.78,514,16" style="stroke:#181818;stroke-width:1.0;"/><line style="stroke:#181818;stroke-width:1.0;" x1="722" x2="732" y1="16" y2="6"/><line style="stroke:#181818;stroke-width:1.0;" x1="514" x2="722" y1="16" y2="16"/><line style="stroke:#181818;stroke-width:1.0;" x1="722" x2="722" y1="16" y2="527.78"/><text fill="#000000" font-family="sans-serif" font-size="14" font-weight="bold" lengthAdjust="spacing" textLength="53" x="592.5" y="31.9951">Engine</text></g><!--cluster d48bac364ad5e16c8a0b13f87d5ae9d5--><g id="cluster_d48bac364ad5e16c8a0b13f87d5ae9d5"><polygon fill="none" points="16,16,26,6,234,6,234,517.78,224,527.78,16,527.78,16,16" style="stroke:#181818;stroke-width:1.0;"/><line style="stroke:#181818;stroke-width:1.0;" x1="224" x2="234" y1="16" y2="6"/><line style="stroke:#181818;stroke-width:1.0;" x1="16" x2="224" y1="16" y2="16"/><line style="stroke:#181818;stroke-width:1.0;" x1="224" x2="224" y1="16" y2="527.78"/><text fill="#000000" font-family="sans-serif" font-size="14" font-weight="bold" lengthAdjust="spacing" textLength="51" x="95.5" y="31.9951">Celery</text></g><!--cluster 1e4f233006a418d3041b06daaeb69e79--><g id="cluster_1e4f233006a418d3041b06daaeb69e79"><polygon fill="none" points="258,24.15,268,14.15,490,14.15,490,517.78,480,527.78,258,527.78,258,24.15" style="stroke:#181818;stroke-width:1.0;"/><line style="stroke:#181818;stroke-width:1.0;" x1="480" x2="490" y1="24.15" y2="14.15"/><line style="stroke:#181818;stroke-width:1.0;" x1="258" x2="480" y1="24.15" y2="24.15"/><line style="stroke:#181818;stroke-width:1.0;" x1="480" x2="480" y1="24.15" y2="527.78"/><text fill="#000000" font-family="sans-serif" font-size="14" font-weight="bold" lengthAdjust="spacing" textLength="156" x="292" y="40.1451">Oncall_db_migration</text></g><!--cluster 86a1b907d54bf7010394bf316e183e67--><g id="cluster_86a1b907d54bf7010394bf316e183e67"><polygon fill="none" points="1867,16,1877,6,2065,6,2065,517.78,2055,527.78,1867,527.78,1867,16" style="stroke:#181818;stroke-width:1.0;"/><line style="stroke:#181818;stroke-width:1.0;" x1="2055" x2="2065" y1="16" y2="6"/><line style="stroke:#181818;stroke-width:1.0;" x1="1867" x2="2055" y1="16" y2="16"/><line style="stroke:#181818;stroke-width:1.0;" x1="2055" x2="2055" y1="16" y2="527.78"/><text fill="#000000" font-family="sans-serif" font-size="14" font-weight="bold" lengthAdjust="spacing" textLength="43" x="1940.5" y="31.9951">Redis</text></g><!--cluster e4f00638b8a10e6994e67af2f832d51c--><g id="cluster_e4f00638b8a10e6994e67af2f832d51c"><polygon fill="none" points="818,16,828,6,1269,6,1269,517.78,1259,527.78,818,527.78,818,16" style="stroke:#181818;stroke-width:1.0;"/><line style="stroke:#181818;stroke-width:1.0;" x1="1259" x2="1269" y1="16" y2="6"/><line style="stroke:#181818;stroke-width:1.0;" x1="818" x2="1259" y1="16" y2="16"/><line style="stroke:#181818;stroke-width:1.0;" x1="1259" x2="1259" y1="16" y2="527.78"/><text fill="#000000" font-family="sans-serif" font-size="14" font-weight="bold" lengthAdjust="spacing" textLength="96" x="991.5" y="31.9951">Prometheus</text></g><!--cluster d9c0e52dd15274d51041b489c7cea0ad--><g id="cluster_d9c0e52dd15274d51041b489c7cea0ad"><polygon fill="none" points="1355,16,1365,6,1781,6,1781,517.78,1771,527.78,1355,527.78,1355,16" style="stroke:#181818;stroke-width:1.0;"/><line style="stroke:#181818;stroke-width:1.0;" x1="1771" x2="1781" y1="16" y2="6"/><line style="stroke:#181818;stroke-width:1.0;" x1="1355" x2="1771" y1="16" y2="16"/><line style="stroke:#181818;stroke-width:1.0;" x1="1771" x2="1771" y1="16" y2="527.78"/><text fill="#000000" font-family="sans-serif" font-size="14" font-weight="bold" lengthAdjust="spacing" textLength="62" x="1533" y="31.9951">Grafana</text></g><!--entity f2f9c11dd0bbc60fc2eb84e047962fe5--><g id="elem_f2f9c11dd0bbc60fc2eb84e047962fe5"><rect fill="#F1F1F1" height="111.4844" rx="2.5" ry="2.5" style="stroke:#181818;stroke-width:0.5;" width="187" x="529.5" y="46"/><rect fill="#F1F1F1" height="10" style="stroke:#181818;stroke-width:0.5;" width="15" x="696.5" y="51"/><rect fill="#F1F1F1" height="2" style="stroke:#181818;stroke-width:0.5;" width="4" x="694.5" y="53"/><rect fill="#F1F1F1" height="2" style="stroke:#181818;stroke-width:0.5;" width="4" x="694.5" y="57"/><text fill="#000000" font-family="sans-serif" font-size="14" font-weight="bold" lengthAdjust="spacing" textLength="54" x="544.5" y="78.9951">engine</text><text fill="#000000" font-family="sans-serif" font-size="14" lengthAdjust="spacing" textLength="4" x="544.5" y="95.292">&#160;</text><text fill="#000000" font-family="sans-serif" font-size="14" lengthAdjust="spacing" textLength="147" x="544.5" y="111.5889">image: grafana/oncall</text><text fill="#000000" font-family="sans-serif" font-size="14" lengthAdjust="spacing" textLength="99" x="544.5" y="127.8857">restart: always</text><text fill="#000000" font-family="sans-serif" font-size="14" lengthAdjust="spacing" textLength="4" x="544.5" y="144.1826">&#160;</text></g><!--entity f8cd6ea83ea66fdf12b032fb37cb8fd2--><g id="elem_f8cd6ea83ea66fdf12b032fb37cb8fd2"><ellipse cx="684" cy="247.49" fill="#F1F1F1" rx="8" ry="8" style="stroke:#181818;stroke-width:0.5;"/><text fill="#000000" font-family="sans-serif" font-size="14" lengthAdjust="spacing" textLength="36" x="666" y="277.4851">8080</text></g><!--entity da0877340be3e650e4bb2c0b6f661d98--><g id="elem_da0877340be3e650e4bb2c0b6f661d98"><rect fill="#F1F1F1" height="39.2969" rx="2.5" ry="2.5" style="stroke:#181818;stroke-width:0.5;" width="120" x="539" y="472.49"/><polygon fill="#F1F1F1" points="642,477.49,642,491.49,654,491.49,654,483.49,648,477.49,642,477.49" style="stroke:#181818;stroke-width:0.5;"/><line style="stroke:#181818;stroke-width:0.5;" x1="648" x2="648" y1="477.49" y2="483.49"/><line style="stroke:#181818;stroke-width:0.5;" x1="654" x2="648" y1="483.49" y2="483.49"/><text fill="#000000" font-family="sans-serif" font-size="14" lengthAdjust="spacing" textLength="90" x="549" y="498.4851">/var/lib/oncall</text></g><!--entity 08b7fccb45858be7a476d4e427762e0d--><g id="elem_08b7fccb45858be7a476d4e427762e0d"><rect fill="#F1F1F1" height="111.4844" rx="2.5" ry="2.5" style="stroke:#181818;stroke-width:0.5;" width="187" x="31.5" y="46"/><rect fill="#F1F1F1" height="10" style="stroke:#181818;stroke-width:0.5;" width="15" x="198.5" y="51"/><rect fill="#F1F1F1" height="2" style="stroke:#181818;stroke-width:0.5;" width="4" x="196.5" y="53"/><rect fill="#F1F1F1" height="2" style="stroke:#181818;stroke-width:0.5;" width="4" x="196.5" y="57"/><text fill="#000000" font-family="sans-serif" font-size="14" font-weight="bold" lengthAdjust="spacing" textLength="49" x="46.5" y="78.9951">celery</text><text fill="#000000" font-family="sans-serif" font-size="14" lengthAdjust="spacing" textLength="4" x="46.5" y="95.292">&#160;</text><text fill="#000000" font-family="sans-serif" font-size="14" lengthAdjust="spacing" textLength="147" x="46.5" y="111.5889">image: grafana/oncall</text><text fill="#000000" font-family="sans-serif" font-size="14" lengthAdjust="spacing" textLength="99" x="46.5" y="127.8857">restart: always</text><text fill="#000000" font-family="sans-serif" font-size="14" lengthAdjust="spacing" textLength="4" x="46.5" y="144.1826">&#160;</text></g><!--entity a2d8eb451211ead4a35bbabd2af921cc--><g id="elem_a2d8eb451211ead4a35bbabd2af921cc"><rect fill="#F1F1F1" height="39.2969" rx="2.5" ry="2.5" style="stroke:#181818;stroke-width:0.5;" width="120" x="82" y="472.49"/><polygon fill="#F1F1F1" points="185,477.49,185,491.49,197,491.49,197,483.49,191,477.49,185,477.49" style="stroke:#181818;stroke-width:0.5;"/><line style="stroke:#181818;stroke-width:0.5;" x1="191" x2="191" y1="477.49" y2="483.49"/><line style="stroke:#181818;stroke-width:0.5;" x1="197" x2="191" y1="483.49" y2="483.49"/><text fill="#000000" font-family="sans-serif" font-size="14" lengthAdjust="spacing" textLength="90" x="92" y="498.4851">/var/lib/oncall</text></g><!--entity a1c6c87076add28cda3e78e61602d62c--><g id="elem_a1c6c87076add28cda3e78e61602d62c"><rect fill="#F1F1F1" height="95.1875" rx="2.5" ry="2.5" style="stroke:#181818;stroke-width:0.5;" width="194" x="277" y="54.15"/><rect fill="#F1F1F1" height="10" style="stroke:#181818;stroke-width:0.5;" width="15" x="451" y="59.15"/><rect fill="#F1F1F1" height="2" style="stroke:#181818;stroke-width:0.5;" width="4" x="449" y="61.15"/><rect fill="#F1F1F1" height="2" style="stroke:#181818;stroke-width:0.5;" width="4" x="449" y="65.15"/><text fill="#000000" font-family="sans-serif" font-size="14" font-weight="bold" lengthAdjust="spacing" textLength="154" x="292" y="87.1451">oncall_db_migration</text><text fill="#000000" font-family="sans-serif" font-size="14" lengthAdjust="spacing" textLength="4" x="292" y="103.442">&#160;</text><text fill="#000000" font-family="sans-serif" font-size="14" lengthAdjust="spacing" textLength="147" x="292" y="119.7389">image: grafana/oncall</text><text fill="#000000" font-family="sans-serif" font-size="14" lengthAdjust="spacing" textLength="4" x="292" y="136.0357">&#160;</text></g><!--entity 9d505c0550873c71d452225d69996d96--><g id="elem_9d505c0550873c71d452225d69996d96"><rect fill="#F1F1F1" height="39.2969" rx="2.5" ry="2.5" style="stroke:#181818;stroke-width:0.5;" width="120" x="314" y="472.49"/><polygon fill="#F1F1F1" points="417,477.49,417,491.49,429,491.49,429,483.49,423,477.49,417,477.49" style="stroke:#181818;stroke-width:0.5;"/><line style="stroke:#181818;stroke-width:0.5;" x1="423" x2="423" y1="477.49" y2="483.49"/><line style="stroke:#181818;stroke-width:0.5;" x1="429" x2="423" y1="483.49" y2="483.49"/><text fill="#000000" font-family="sans-serif" font-size="14" lengthAdjust="spacing" textLength="90" x="324" y="498.4851">/var/lib/oncall</text></g><!--entity 3c217ea98bfddc0f9ff1c849de325d93--><g id="elem_3c217ea98bfddc0f9ff1c849de325d93"><rect fill="#F1F1F1" height="111.4844" rx="2.5" ry="2.5" style="stroke:#181818;stroke-width:0.5;" width="165" x="1883.5" y="46"/><rect fill="#F1F1F1" height="10" style="stroke:#181818;stroke-width:0.5;" width="15" x="2028.5" y="51"/><rect fill="#F1F1F1" height="2" style="stroke:#181818;stroke-width:0.5;" width="4" x="2026.5" y="53"/><rect fill="#F1F1F1" height="2" style="stroke:#181818;stroke-width:0.5;" width="4" x="2026.5" y="57"/><text fill="#000000" font-family="sans-serif" font-size="14" font-weight="bold" lengthAdjust="spacing" textLength="40" x="1898.5" y="78.9951">redis</text><text fill="#000000" font-family="sans-serif" font-size="14" lengthAdjust="spacing" textLength="4" x="1898.5" y="95.292">&#160;</text><text fill="#000000" font-family="sans-serif" font-size="14" lengthAdjust="spacing" textLength="125" x="1898.5" y="111.5889">image: redis:7.0.5</text><text fill="#000000" font-family="sans-serif" font-size="14" lengthAdjust="spacing" textLength="99" x="1898.5" y="127.8857">restart: always</text><text fill="#000000" font-family="sans-serif" font-size="14" lengthAdjust="spacing" textLength="4" x="1898.5" y="144.1826">&#160;</text></g><!--entity 4ee201798dddc2e46fd8eed211348fce--><g id="elem_4ee201798dddc2e46fd8eed211348fce"><rect fill="#F1F1F1" height="39.2969" rx="2.5" ry="2.5" style="stroke:#181818;stroke-width:0.5;" width="65" x="1933.5" y="472.49"/><polygon fill="#F1F1F1" points="1981.5,477.49,1981.5,491.49,1993.5,491.49,1993.5,483.49,1987.5,477.49,1981.5,477.49" style="stroke:#181818;stroke-width:0.5;"/><line style="stroke:#181818;stroke-width:0.5;" x1="1987.5" x2="1987.5" y1="477.49" y2="483.49"/><line style="stroke:#181818;stroke-width:0.5;" x1="1993.5" x2="1987.5" y1="483.49" y2="483.49"/><text fill="#000000" font-family="sans-serif" font-size="14" lengthAdjust="spacing" textLength="35" x="1943.5" y="498.4851">/data</text></g><!--entity b0b6236e8ab49920c48d10f339f1a86a--><g id="elem_b0b6236e8ab49920c48d10f339f1a86a"><rect fill="#F1F1F1" height="111.4844" rx="2.5" ry="2.5" style="stroke:#181818;stroke-width:0.5;" width="217" x="1035.5" y="46"/><rect fill="#F1F1F1" height="10" style="stroke:#181818;stroke-width:0.5;" width="15" x="1232.5" y="51"/><rect fill="#F1F1F1" height="2" style="stroke:#181818;stroke-width:0.5;" width="4" x="1230.5" y="53"/><rect fill="#F1F1F1" height="2" style="stroke:#181818;stroke-width:0.5;" width="4" x="1230.5" y="57"/><text fill="#000000" font-family="sans-serif" font-size="14" font-weight="bold" lengthAdjust="spacing" textLength="96" x="1050.5" y="78.9951">prometheus</text><text fill="#000000" font-family="sans-serif" font-size="14" lengthAdjust="spacing" textLength="4" x="1050.5" y="95.292">&#160;</text><text fill="#000000" font-family="sans-serif" font-size="14" lengthAdjust="spacing" textLength="177" x="1050.5" y="111.5889">image: prom/prometheus</text><text fill="#000000" font-family="sans-serif" font-size="14" lengthAdjust="spacing" textLength="99" x="1050.5" y="127.8857">restart: always</text><text fill="#000000" font-family="sans-serif" font-size="14" lengthAdjust="spacing" textLength="4" x="1050.5" y="144.1826">&#160;</text></g><!--entity cfd4d43463526be4db6bd372951d8018--><g id="elem_cfd4d43463526be4db6bd372951d8018"><ellipse cx="1221" cy="247.49" fill="#F1F1F1" rx="8" ry="8" style="stroke:#181818;stroke-width:0.5;"/><text fill="#000000" font-family="sans-serif" font-size="14" lengthAdjust="spacing" textLength="36" x="1203" y="277.4851">9090</text></g><!--entity 2adcca88853978e8819fa6f93984a08a--><g id="elem_2adcca88853978e8819fa6f93984a08a"><rect fill="#F1F1F1" height="39.2969" rx="2.5" ry="2.5" style="stroke:#181818;stroke-width:0.5;" width="264" x="834" y="472.49"/><polygon fill="#F1F1F1" points="1081,477.49,1081,491.49,1093,491.49,1093,483.49,1087,477.49,1081,477.49" style="stroke:#181818;stroke-width:0.5;"/><line style="stroke:#181818;stroke-width:0.5;" x1="1087" x2="1087" y1="477.49" y2="483.49"/><line style="stroke:#181818;stroke-width:0.5;" x1="1093" x2="1087" y1="483.49" y2="483.49"/><text fill="#000000" font-family="sans-serif" font-size="14" lengthAdjust="spacing" textLength="234" x="844" y="498.4851">/etc/prometheus/prometheus.yml</text></g><!--entity 66ea46159f158592d153eec2b58bfad1--><g id="elem_66ea46159f158592d153eec2b58bfad1"><rect fill="#F1F1F1" height="39.2969" rx="2.5" ry="2.5" style="stroke:#181818;stroke-width:0.5;" width="120" x="1133" y="472.49"/><polygon fill="#F1F1F1" points="1236,477.49,1236,491.49,1248,491.49,1248,483.49,1242,477.49,1236,477.49" style="stroke:#181818;stroke-width:0.5;"/><line style="stroke:#181818;stroke-width:0.5;" x1="1242" x2="1242" y1="477.49" y2="483.49"/><line style="stroke:#181818;stroke-width:0.5;" x1="1248" x2="1242" y1="483.49" y2="483.49"/><text fill="#000000" font-family="sans-serif" font-size="14" lengthAdjust="spacing" textLength="90" x="1143" y="498.4851">/prometheus</text></g><!--entity ca625ae68e4d4a58f9ba859ff3420557--><g id="elem_ca625ae68e4d4a58f9ba859ff3420557"><rect fill="#F1F1F1" height="111.4844" rx="2.5" ry="2.5" style="stroke:#181818;stroke-width:0.5;" width="395" x="1370.5" y="46"/><rect fill="#F1F1F1" height="10" style="stroke:#181818;stroke-width:0.5;" width="15" x="1745.5" y="51"/><rect fill="#F1F1F1" height="2" style="stroke:#181818;stroke-width:0.5;" width="4" x="1743.5" y="53"/><rect fill="#F1F1F1" height="2" style="stroke:#181818;stroke-width:0.5;" width="4" x="1743.5" y="57"/><text fill="#000000" font-family="sans-serif" font-size="14" font-weight="bold" lengthAdjust="spacing" textLength="60" x="1385.5" y="78.9951">grafana</text><text fill="#000000" font-family="sans-serif" font-size="14" lengthAdjust="spacing" textLength="4" x="1385.5" y="95.292">&#160;</text><text fill="#000000" font-family="sans-serif" font-size="14" lengthAdjust="spacing" textLength="355" x="1385.5" y="111.5889">image: grafana/${GRAFANA_IMAGE:-grafana:latest}</text><text fill="#000000" font-family="sans-serif" font-size="14" lengthAdjust="spacing" textLength="99" x="1385.5" y="127.8857">restart: always</text><text fill="#000000" font-family="sans-serif" font-size="14" lengthAdjust="spacing" textLength="4" x="1385.5" y="144.1826">&#160;</text></g><!--entity c5664dab3686c7cea75d1a44d1d9db0f--><g id="elem_c5664dab3686c7cea75d1a44d1d9db0f"><ellipse cx="1684" cy="247.49" fill="#F1F1F1" rx="8" ry="8" style="stroke:#181818;stroke-width:0.5;"/><text fill="#000000" font-family="sans-serif" font-size="14" lengthAdjust="spacing" textLength="36" x="1666" y="277.4851">3000</text></g><!--entity 19aaf646ebab836177911c3b33563161--><g id="elem_19aaf646ebab836177911c3b33563161"><rect fill="#F1F1F1" height="39.2969" rx="2.5" ry="2.5" style="stroke:#181818;stroke-width:0.5;" width="131" x="1502.5" y="472.49"/><polygon fill="#F1F1F1" points="1616.5,477.49,1616.5,491.49,1628.5,491.49,1628.5,483.49,1622.5,477.49,1616.5,477.49" style="stroke:#181818;stroke-width:0.5;"/><line style="stroke:#181818;stroke-width:0.5;" x1="1622.5" x2="1622.5" y1="477.49" y2="483.49"/><line style="stroke:#181818;stroke-width:0.5;" x1="1628.5" x2="1622.5" y1="483.49" y2="483.49"/><text fill="#000000" font-family="sans-serif" font-size="14" lengthAdjust="spacing" textLength="101" x="1512.5" y="498.4851">/var/lib/grafana</text></g><!--entity 600c44c1349e9154dce569ba37e2d70b--><g id="elem_600c44c1349e9154dce569ba37e2d70b"><ellipse cx="775" cy="382.49" fill="#F1F1F1" rx="8" ry="8" style="stroke:#181818;stroke-width:0.5;"/><text fill="#000000" font-family="sans-serif" font-size="14" lengthAdjust="spacing" textLength="36" x="757" y="412.4851">8080</text></g><!--entity 267de027b65a807d2138ee534426efa5--><g id="elem_267de027b65a807d2138ee534426efa5"><ellipse cx="1312" cy="382.49" fill="#F1F1F1" rx="8" ry="8" style="stroke:#181818;stroke-width:0.5;"/><text fill="#000000" font-family="sans-serif" font-size="14" lengthAdjust="spacing" textLength="36" x="1294" y="412.4851">9090</text></g><!--entity f078924e338e21558f85fe59f3c5eab4--><g id="elem_f078924e338e21558f85fe59f3c5eab4"><ellipse cx="1824" cy="382.49" fill="#F1F1F1" rx="8" ry="8" style="stroke:#181818;stroke-width:0.5;"/><text fill="#000000" font-family="sans-serif" font-size="14" lengthAdjust="spacing" textLength="36" x="1806" y="412.4851">3000</text></g><!--entity 32360b348b6078c134c05c3483f5e5dd--><g id="elem_32360b348b6078c134c05c3483f5e5dd"><rect fill="#F1F1F1" height="39.2969" rx="2.5" ry="2.5" style="stroke:#181818;stroke-width:0.5;" width="107" x="320.5" y="590.78"/><polygon fill="#F1F1F1" points="410.5,595.78,410.5,609.78,422.5,609.78,422.5,601.78,416.5,595.78,410.5,595.78" style="stroke:#181818;stroke-width:0.5;"/><line style="stroke:#181818;stroke-width:0.5;" x1="416.5" x2="416.5" y1="595.78" y2="601.78"/><line style="stroke:#181818;stroke-width:0.5;" x1="422.5" x2="416.5" y1="601.78" y2="601.78"/><text fill="#000000" font-family="sans-serif" font-size="14" lengthAdjust="spacing" textLength="77" x="330.5" y="616.7751">oncall_data</text></g><!--entity 34f2b5448a6bc753dc7925cf83b099bf--><g id="elem_34f2b5448a6bc753dc7925cf83b099bf"><rect fill="#F1F1F1" height="39.2969" rx="2.5" ry="2.5" style="stroke:#181818;stroke-width:0.5;" width="101" x="1915.5" y="590.78"/><polygon fill="#F1F1F1" points="1999.5,595.78,1999.5,609.78,2011.5,609.78,2011.5,601.78,2005.5,595.78,1999.5,595.78" style="stroke:#181818;stroke-width:0.5;"/><line style="stroke:#181818;stroke-width:0.5;" x1="2005.5" x2="2005.5" y1="595.78" y2="601.78"/><line style="stroke:#181818;stroke-width:0.5;" x1="2011.5" x2="2005.5" y1="601.78" y2="601.78"/><text fill="#000000" font-family="sans-serif" font-size="14" lengthAdjust="spacing" textLength="71" x="1925.5" y="616.7751">redis_data</text></g><!--entity eada8ba9abf157c74309064f2ddb595c--><g id="elem_eada8ba9abf157c74309064f2ddb595c"><rect fill="#F1F1F1" height="39.2969" rx="2.5" ry="2.5" style="stroke:#181818;stroke-width:0.5;" width="151" x="890.5" y="590.78"/><polygon fill="#F1F1F1" points="1024.5,595.78,1024.5,609.78,1036.5,609.78,1036.5,601.78,1030.5,595.78,1024.5,595.78" style="stroke:#181818;stroke-width:0.5;"/><line style="stroke:#181818;stroke-width:0.5;" x1="1030.5" x2="1030.5" y1="595.78" y2="601.78"/><line style="stroke:#181818;stroke-width:0.5;" x1="1036.5" x2="1030.5" y1="601.78" y2="601.78"/><text fill="#000000" font-family="sans-serif" font-size="14" lengthAdjust="spacing" textLength="121" x="900.5" y="616.7751">./prometheus.yml</text></g><!--entity 5a78fcb96e48d6ea6fb989a2e0319ebb--><g id="elem_5a78fcb96e48d6ea6fb989a2e0319ebb"><rect fill="#F1F1F1" height="39.2969" rx="2.5" ry="2.5" style="stroke:#181818;stroke-width:0.5;" width="152" x="1117" y="590.78"/><polygon fill="#F1F1F1" points="1252,595.78,1252,609.78,1264,609.78,1264,601.78,1258,595.78,1252,595.78" style="stroke:#181818;stroke-width:0.5;"/><line style="stroke:#181818;stroke-width:0.5;" x1="1258" x2="1258" y1="595.78" y2="601.78"/><line style="stroke:#181818;stroke-width:0.5;" x1="1264" x2="1258" y1="601.78" y2="601.78"/><text fill="#000000" font-family="sans-serif" font-size="14" lengthAdjust="spacing" textLength="122" x="1127" y="616.7751">prometheus_data</text></g><!--entity f487e909398308adc44c7a00a2646801--><g id="elem_f487e909398308adc44c7a00a2646801"><rect fill="#F1F1F1" height="39.2969" rx="2.5" ry="2.5" style="stroke:#181818;stroke-width:0.5;" width="118" x="1509" y="590.78"/><polygon fill="#F1F1F1" points="1610,595.78,1610,609.78,1622,609.78,1622,601.78,1616,595.78,1610,595.78" style="stroke:#181818;stroke-width:0.5;"/><line style="stroke:#181818;stroke-width:0.5;" x1="1616" x2="1616" y1="595.78" y2="601.78"/><line style="stroke:#181818;stroke-width:0.5;" x1="1622" x2="1616" y1="601.78" y2="601.78"/><text fill="#000000" font-family="sans-serif" font-size="14" lengthAdjust="spacing" textLength="88" x="1519" y="616.7751">grafana_data</text></g><!--link f2f9c11dd0bbc60fc2eb84e047962fe5 to f8cd6ea83ea66fdf12b032fb37cb8fd2--><g id="link_f2f9c11dd0bbc60fc2eb84e047962fe5_f8cd6ea83ea66fdf12b032fb37cb8fd2"><path codeLine="73" d="M646.41,157.91 C659.45,188.63 674.31,223.66 680.75,238.82 " fill="none" id="f2f9c11dd0bbc60fc2eb84e047962fe5-f8cd6ea83ea66fdf12b032fb37cb8fd2" style="stroke:#181818;stroke-width:1.0;"/></g><!--link f8cd6ea83ea66fdf12b032fb37cb8fd2 to 600c44c1349e9154dce569ba37e2d70b--><g id="link_f8cd6ea83ea66fdf12b032fb37cb8fd2_600c44c1349e9154dce569ba37e2d70b"><path codeLine="74" d="M689.42,256.41 C705.64,280.12 753.69,350.34 769.72,373.77 " fill="none" id="f8cd6ea83ea66fdf12b032fb37cb8fd2-600c44c1349e9154dce569ba37e2d70b" style="stroke:#181818;stroke-width:1.0;"/></g><!--link da0877340be3e650e4bb2c0b6f661d98 to 32360b348b6078c134c05c3483f5e5dd--><g id="link_da0877340be3e650e4bb2c0b6f661d98_32360b348b6078c134c05c3483f5e5dd"><path codeLine="75" d="M562.1,512.21 C520.33,533.8 452.7,568.76 410.92,590.35 " fill="none" id="da0877340be3e650e4bb2c0b6f661d98-32360b348b6078c134c05c3483f5e5dd" style="stroke:#181818;stroke-width:1.0;"/><text fill="#000000" font-family="sans-serif" font-size="13" lengthAdjust="spacing" textLength="14" x="500" y="556.8469">rw</text></g><!--link f2f9c11dd0bbc60fc2eb84e047962fe5 to da0877340be3e650e4bb2c0b6f661d98--><g id="link_f2f9c11dd0bbc60fc2eb84e047962fe5_da0877340be3e650e4bb2c0b6f661d98"><path codeLine="76" d="M619.59,157.98 C614.13,246.36 604.0497,409.3814 600.5497,466.0714 " fill="none" id="f2f9c11dd0bbc60fc2eb84e047962fe5-to-da0877340be3e650e4bb2c0b6f661d98" style="stroke:#181818;stroke-width:1.0;stroke-dasharray:7.0,7.0;"/><polygon fill="#181818" points="600.18,472.06,604.727,463.3236,600.4881,467.0695,596.7422,462.8306,600.18,472.06" style="stroke:#181818;stroke-width:1.0;"/><text fill="#000000" font-family="sans-serif" font-size="13" lengthAdjust="spacing" textLength="23" x="611" y="319.5569">use</text></g><!--link a2d8eb451211ead4a35bbabd2af921cc to 32360b348b6078c134c05c3483f5e5dd--><g id="link_a2d8eb451211ead4a35bbabd2af921cc_32360b348b6078c134c05c3483f5e5dd"><path codeLine="77" d="M180.05,512.21 C223.11,533.8 292.86,568.76 335.93,590.35 " fill="none" id="a2d8eb451211ead4a35bbabd2af921cc-32360b348b6078c134c05c3483f5e5dd" style="stroke:#181818;stroke-width:1.0;"/><text fill="#000000" font-family="sans-serif" font-size="13" lengthAdjust="spacing" textLength="14" x="272" y="556.8469">rw</text></g><!--link 08b7fccb45858be7a476d4e427762e0d to a2d8eb451211ead4a35bbabd2af921cc--><g id="link_08b7fccb45858be7a476d4e427762e0d_a2d8eb451211ead4a35bbabd2af921cc"><path codeLine="78" d="M127.42,157.98 C131.29,246.36 138.4167,409.3758 140.9067,466.0658 " fill="none" id="08b7fccb45858be7a476d4e427762e0d-to-a2d8eb451211ead4a35bbabd2af921cc" style="stroke:#181818;stroke-width:1.0;stroke-dasharray:7.0,7.0;"/><polygon fill="#181818" points="141.17,472.06,144.7712,462.8931,140.9506,467.0648,136.7789,463.2442,141.17,472.06" style="stroke:#181818;stroke-width:1.0;"/><text fill="#000000" font-family="sans-serif" font-size="13" lengthAdjust="spacing" textLength="23" x="135" y="319.5569">use</text></g><!--link 9d505c0550873c71d452225d69996d96 to 32360b348b6078c134c05c3483f5e5dd--><g id="link_9d505c0550873c71d452225d69996d96_32360b348b6078c134c05c3483f5e5dd"><path codeLine="79" d="M374,512.08 C374,533.7 374,568.87 374,590.5 " fill="none" id="9d505c0550873c71d452225d69996d96-32360b348b6078c134c05c3483f5e5dd" style="stroke:#181818;stroke-width:1.0;"/><text fill="#000000" font-family="sans-serif" font-size="13" lengthAdjust="spacing" textLength="14" x="375" y="556.8469">rw</text></g><!--link a1c6c87076add28cda3e78e61602d62c to 9d505c0550873c71d452225d69996d96--><g id="link_a1c6c87076add28cda3e78e61602d62c_9d505c0550873c71d452225d69996d96"><path codeLine="80" d="M374,149.59 C374,235.34 374,408.07 374,466.33 " fill="none" id="a1c6c87076add28cda3e78e61602d62c-to-9d505c0550873c71d452225d69996d96" style="stroke:#181818;stroke-width:1.0;stroke-dasharray:7.0,7.0;"/><polygon fill="#181818" points="374,472.33,378,463.33,374,467.33,370,463.33,374,472.33" style="stroke:#181818;stroke-width:1.0;"/><text fill="#000000" font-family="sans-serif" font-size="13" lengthAdjust="spacing" textLength="23" x="375" y="319.5569">use</text></g><!--link 4ee201798dddc2e46fd8eed211348fce to 34f2b5448a6bc753dc7925cf83b099bf--><g id="link_4ee201798dddc2e46fd8eed211348fce_34f2b5448a6bc753dc7925cf83b099bf"><path codeLine="81" d="M1966,512.08 C1966,533.7 1966,568.87 1966,590.5 " fill="none" id="4ee201798dddc2e46fd8eed211348fce-34f2b5448a6bc753dc7925cf83b099bf" style="stroke:#181818;stroke-width:1.0;"/><text fill="#000000" font-family="sans-serif" font-size="13" lengthAdjust="spacing" textLength="14" x="1967" y="556.8469">rw</text></g><!--link 3c217ea98bfddc0f9ff1c849de325d93 to 4ee201798dddc2e46fd8eed211348fce--><g id="link_3c217ea98bfddc0f9ff1c849de325d93_4ee201798dddc2e46fd8eed211348fce"><path codeLine="82" d="M1966,157.98 C1966,246.36 1966,409.37 1966,466.06 " fill="none" id="3c217ea98bfddc0f9ff1c849de325d93-to-4ee201798dddc2e46fd8eed211348fce" style="stroke:#181818;stroke-width:1.0;stroke-dasharray:7.0,7.0;"/><polygon fill="#181818" points="1966,472.06,1970,463.06,1966,467.06,1962,463.06,1966,472.06" style="stroke:#181818;stroke-width:1.0;"/><text fill="#000000" font-family="sans-serif" font-size="13" lengthAdjust="spacing" textLength="23" x="1967" y="319.5569">use</text></g><!--link b0b6236e8ab49920c48d10f339f1a86a to cfd4d43463526be4db6bd372951d8018--><g id="link_b0b6236e8ab49920c48d10f339f1a86a_cfd4d43463526be4db6bd372951d8018"><path codeLine="83" d="M1173.55,157.91 C1190.01,188.63 1208.77,223.66 1216.89,238.82 " fill="none" id="b0b6236e8ab49920c48d10f339f1a86a-cfd4d43463526be4db6bd372951d8018" style="stroke:#181818;stroke-width:1.0;"/></g><!--link cfd4d43463526be4db6bd372951d8018 to 267de027b65a807d2138ee534426efa5--><g id="link_cfd4d43463526be4db6bd372951d8018_267de027b65a807d2138ee534426efa5"><path codeLine="84" d="M1226.42,256.41 C1242.64,280.12 1290.69,350.34 1306.72,373.77 " fill="none" id="cfd4d43463526be4db6bd372951d8018-267de027b65a807d2138ee534426efa5" style="stroke:#181818;stroke-width:1.0;"/></g><!--link 2adcca88853978e8819fa6f93984a08a to eada8ba9abf157c74309064f2ddb595c--><g id="link_2adcca88853978e8819fa6f93984a08a_eada8ba9abf157c74309064f2ddb595c"><path codeLine="85" d="M966,512.08 C966,533.7 966,568.87 966,590.5 " fill="none" id="2adcca88853978e8819fa6f93984a08a-eada8ba9abf157c74309064f2ddb595c" style="stroke:#181818;stroke-width:1.0;"/><text fill="#000000" font-family="sans-serif" font-size="13" lengthAdjust="spacing" textLength="14" x="967" y="556.8469">rw</text></g><!--link b0b6236e8ab49920c48d10f339f1a86a to 2adcca88853978e8819fa6f93984a08a--><g id="link_b0b6236e8ab49920c48d10f339f1a86a_2adcca88853978e8819fa6f93984a08a"><path codeLine="86" d="M1118.69,157.98 C1078.18,246.36 1003.2197,409.9155 977.2397,466.6055 " fill="none" id="b0b6236e8ab49920c48d10f339f1a86a-to-2adcca88853978e8819fa6f93984a08a" style="stroke:#181818;stroke-width:1.0;stroke-dasharray:7.0,7.0;"/><polygon fill="#181818" points="974.74,472.06,982.1259,465.5447,976.8231,467.5146,974.8532,462.2118,974.74,472.06" style="stroke:#181818;stroke-width:1.0;"/><text fill="#000000" font-family="sans-serif" font-size="13" lengthAdjust="spacing" textLength="23" x="1051" y="319.5569">use</text></g><!--link 66ea46159f158592d153eec2b58bfad1 to 5a78fcb96e48d6ea6fb989a2e0319ebb--><g id="link_66ea46159f158592d153eec2b58bfad1_5a78fcb96e48d6ea6fb989a2e0319ebb"><path codeLine="87" d="M1193,512.08 C1193,533.7 1193,568.87 1193,590.5 " fill="none" id="66ea46159f158592d153eec2b58bfad1-5a78fcb96e48d6ea6fb989a2e0319ebb" style="stroke:#181818;stroke-width:1.0;"/><text fill="#000000" font-family="sans-serif" font-size="13" lengthAdjust="spacing" textLength="14" x="1194" y="556.8469">rw</text></g><!--link b0b6236e8ab49920c48d10f339f1a86a to 66ea46159f158592d153eec2b58bfad1--><g id="link_b0b6236e8ab49920c48d10f339f1a86a_66ea46159f158592d153eec2b58bfad1"><path codeLine="88" d="M1150.97,157.98 C1162.12,246.36 1182.6892,409.4172 1189.8392,466.1072 " fill="none" id="b0b6236e8ab49920c48d10f339f1a86a-to-66ea46159f158592d153eec2b58bfad1" style="stroke:#181818;stroke-width:1.0;stroke-dasharray:7.0,7.0;"/><polygon fill="#181818" points="1190.59,472.06,1193.4324,462.6302,1189.9643,467.0993,1185.4952,463.6313,1190.59,472.06" style="stroke:#181818;stroke-width:1.0;"/><text fill="#000000" font-family="sans-serif" font-size="13" lengthAdjust="spacing" textLength="23" x="1172" y="319.5569">use</text></g><!--link ca625ae68e4d4a58f9ba859ff3420557 to c5664dab3686c7cea75d1a44d1d9db0f--><g id="link_ca625ae68e4d4a58f9ba859ff3420557_c5664dab3686c7cea75d1a44d1d9db0f"><path codeLine="89" d="M1612.52,157.91 C1637.31,188.63 1665.58,223.66 1677.81,238.82 " fill="none" id="ca625ae68e4d4a58f9ba859ff3420557-c5664dab3686c7cea75d1a44d1d9db0f" style="stroke:#181818;stroke-width:1.0;"/></g><!--link c5664dab3686c7cea75d1a44d1d9db0f to f078924e338e21558f85fe59f3c5eab4--><g id="link_c5664dab3686c7cea75d1a44d1d9db0f_f078924e338e21558f85fe59f3c5eab4"><path codeLine="90" d="M1692.34,256.41 C1717.3,280.12 1791.21,350.34 1815.88,373.77 " fill="none" id="c5664dab3686c7cea75d1a44d1d9db0f-f078924e338e21558f85fe59f3c5eab4" style="stroke:#181818;stroke-width:1.0;"/></g><!--link 19aaf646ebab836177911c3b33563161 to f487e909398308adc44c7a00a2646801--><g id="link_19aaf646ebab836177911c3b33563161_f487e909398308adc44c7a00a2646801"><path codeLine="91" d="M1568,512.08 C1568,533.7 1568,568.87 1568,590.5 " fill="none" id="19aaf646ebab836177911c3b33563161-f487e909398308adc44c7a00a2646801" style="stroke:#181818;stroke-width:1.0;"/><text fill="#000000" font-family="sans-serif" font-size="13" lengthAdjust="spacing" textLength="14" x="1569" y="556.8469">rw</text></g><!--link ca625ae68e4d4a58f9ba859ff3420557 to 19aaf646ebab836177911c3b33563161--><g id="link_ca625ae68e4d4a58f9ba859ff3420557_19aaf646ebab836177911c3b33563161"><path codeLine="92" d="M1568,157.98 C1568,246.36 1568,409.37 1568,466.06 " fill="none" id="ca625ae68e4d4a58f9ba859ff3420557-to-19aaf646ebab836177911c3b33563161" style="stroke:#181818;stroke-width:1.0;stroke-dasharray:7.0,7.0;"/><polygon fill="#181818" points="1568,472.06,1572,463.06,1568,467.06,1564,463.06,1568,472.06" style="stroke:#181818;stroke-width:1.0;"/><text fill="#000000" font-family="sans-serif" font-size="13" lengthAdjust="spacing" textLength="23" x="1569" y="319.5569">use</text></g><!--SRC=[bLNBQcD74DtVhn0cYyHWkP_LtLu4J9YOBF9WjY6OggvgHo1BHjR46ORvzvIk9FigiTDufqVNuvmwfmgNo_NJ_UBlnUfkMArPPcSVLdUBbPpDy766R4lmM1e3UquYLW1Ri1Z9i9Sq-pBCwlh-ORsIrNRMN2lLMcP3LC6qweHo41DI0TSapduVpizbp7v-FWoBUxoJgzdT1Xkky7AzghXS3XjvtE9cUpN3vHD-VXo6FuPllvkTPPFDs5BBbK4mUq60niqwCjurygbIRkm63LuqhDlPsULVkBbSBkYGUWndD3ab7mo95uX60f6hXg01M2vv-7fWuGTPokRpFYPamkeX84UnK3CQihxbn16bS3nbmMHAhLOACSTCaZ0au231fGHE38yir37xkrZuVrpeE8lMjCvQGGxe8n4IEsp5sLgVSVqwnjmotTuljEXsiLwD2Qo4vhmt1Z3OpDu4ImOOKGYAf78A4crL7f99WCnEHuAgXYnWmJW6LqUGw_-MUXjn5w4IRM8rCUe0VKsMGtJEHOPI2d21PuGVXHUFOqW6j5ICpYbGIyOQN_I3jo1MzGF_ag-lpYR1aganLzDAQxRcK5YybYb-nBJP9P-W6BzVfRcPnyxG6BSuTXL4dB6fPDOoJeAgE8km3iw7tAey0_bjixwNxP_oQOz61wJJyPaoMYCAEoW4LDDbxpZQUeg6LDFEWsIaK8epDMIsfdbVcaKbPaJpy5nX0cdtu-NBFsyvifYoTsHj73Zu03uw80bCGEoJAz5oDZPFIP1jdQIUV9n_lj-FsI7NYZddw8igAcTR6a8hlkIWtiLfjeTJWa3tGW0R5Q5whpYsqOjKH-h3fglicTYRlVJsvYxLI7IiZrqAokDE-26NcggWGJvbjI8uDJraXHamvbO8jLHhFZYLPXfPFIZx5Qr_y-Ncu_MFrxzSt_xqy_NDXwkBmnzNIzmgor_VubfjUU0w0WH6yf1Xx315jXW2w-vYCkqr3zrDqDg2s220w6x87cnAnThgoVi8weiTHIVR5emA9rHLPf5YO-0g4HIpJ-8u6JfLWeF4ObmYY9ZLTivwLNRq8JYGXl4KIpCf5nV4woDdevAPerw9qdoDeggTO3bkagE5l2hRaDg5G9FisjF5KFMxRr4YyoHqDEWaKhSSnH0o0jKKFTTKNApg8JAbq9J0-MlorDsAUWqAaeeirHIyWWTDoaonn3g9Vub-AHyngSMfWAWTLQxGgEI2UXUyBK8q2J-CxIMsXPn4kLOdU3K2xmQJq1XqEb0rsj2zlnTyqR-VlGTZbgukUdTspD8Ru-nAv_TqrWSsd_Dy_dttkE_oVNgKiw5tBT_LNVVW7xhh5Zrsrxjqx-gkUwaFtNMB7hlhdQzzTnsR7Rlhtjn3TzsYn-wwPs_NNVTYzHwCMRhRhdVAnYozXN9agWlim5Itw96fthKSk-ljg_TsrorwxAvxQCSvzgvXxy5-8_RkKEzexhDqjlEHgIwm0rFTeWUc_W40]--></g></svg>