<svg width="32" height="39" viewBox="0 0 32 39" fill="none" xmlns="http://www.w3.org/2000/svg">
  <path d="M17.6151 3.80685C20.1136 0.516043 23.5871 0.5 23.5871 0.5C23.5871 0.5 24.1037 3.59392 21.6216 6.57435C18.9714 9.75679 15.959 9.23604 15.959 9.23604C15.959 9.23604 15.3933 6.73316 17.6151 3.80685V3.80685ZM16.2768 11.4033C17.5621 11.4033 19.9476 9.63768 23.0527 9.63768C28.3976 9.63768 30.5003 13.4383 30.5003 13.4383C30.5003 13.4383 26.3878 15.5395 26.3878 20.6379C26.3878 26.3893 31.5108 28.3714 31.5108 28.3714C31.5108 28.3714 27.9296 38.4442 23.0925 38.4442C20.8708 38.4442 19.1436 36.948 16.8027 36.948C14.4172 36.948 12.0499 38.5 10.5081 38.5C6.09106 38.5001 0.510803 28.9451 0.510803 21.2644C0.510803 13.7077 5.23413 9.74356 9.66441 9.74356C12.5445 9.74356 14.7795 11.4033 16.2768 11.4033V11.4033Z" fill="#CCCCDC" fill-opacity="0.65"/>
</svg>
