<svg width="324" height="279" viewBox="0 0 324 279" fill="none" xmlns="http://www.w3.org/2000/svg">
<path opacity="0.3" d="M90.6732 237.515C36.7258 235.221 -3.77005 193.776 17.9342 132.889C32.3673 92.5218 68.3239 59.1286 103.567 58.7021C138.811 58.2755 233.871 62.4839 285.267 120.878C336.663 179.273 292.046 248.81 248.619 263.404C205.191 277.997 144.621 239.81 90.6732 237.515Z" fill="#CA87E9"/>
<path d="M132.912 159.87C126.091 161.774 71.2927 177.602 80.6032 191.318C89.3356 204.177 131.744 188.915 145.083 179.623" fill="#F9A01B"/>
<path d="M81.8625 190.467C83.6273 193.065 87.2784 194.477 92.5544 194.708C97.7573 194.933 104.135 193.978 110.749 192.31C123.991 188.97 137.744 182.896 144.219 178.381L145.959 180.876C139.095 185.659 124.977 191.86 111.492 195.256C104.743 196.96 98.0433 197.988 92.4266 197.745C86.8768 197.507 81.9538 196.004 79.3493 192.177L81.8686 190.467H81.8625ZM133.32 161.336C129.924 162.286 114.601 166.697 101.323 172.558C94.6599 175.503 88.6415 178.746 84.893 182.032C83.0126 183.675 81.826 185.221 81.3331 186.615C80.8706 187.917 80.9741 189.158 81.8625 190.46L79.3432 192.17C77.901 190.047 77.6819 187.795 78.4608 185.598C79.2093 183.493 80.828 181.539 82.8848 179.738C86.9985 176.136 93.3698 172.74 100.094 169.77C113.585 163.813 129.078 159.359 132.504 158.403L133.32 161.336ZM144.212 178.375C144.9 177.894 145.849 178.065 146.33 178.752C146.811 179.44 146.641 180.389 145.953 180.87L144.212 178.375ZM132.504 158.403C133.314 158.178 134.153 158.653 134.379 159.462C134.604 160.271 134.129 161.111 133.32 161.336L132.504 158.403Z" fill="black"/>
<path d="M128.629 206.636C120.755 207.165 102.298 215.484 91.5877 188.002C80.8776 160.521 65.2505 139.953 50.7614 153.523" stroke="black" stroke-width="5.54424" stroke-miterlimit="10" stroke-linecap="round"/>
<path d="M84.9912 194.495C77.8714 190.442 76.1919 182.264 77.9749 176.994C79.4475 172.649 85.8431 170.872 89.6038 176.16C93.7844 182.033 86.9507 188.276 86.9507 188.276" fill="#F9A01B"/>
<path d="M90.8447 175.277C93.4005 178.868 92.5181 182.568 91.1976 185.117C90.5343 186.395 89.7372 187.46 89.1165 188.19C88.8 188.562 88.5262 188.854 88.3254 189.061C88.228 189.164 88.1428 189.243 88.082 189.298C88.0515 189.328 88.0272 189.347 88.0089 189.365C88.0029 189.371 87.9907 189.377 87.9846 189.383C87.9846 189.383 87.9846 189.383 87.9785 189.389C87.9785 189.389 87.6357 189.016 86.9501 188.27C86.2645 187.519 85.9217 187.146 85.9217 187.15C85.9217 187.15 85.9217 187.15 85.9278 187.144C85.9338 187.138 85.9521 187.126 85.9704 187.101C86.0069 187.065 86.0677 187.004 86.1468 186.925C86.3051 186.767 86.5302 186.523 86.7919 186.219C87.3152 185.598 87.9663 184.734 88.4897 183.718C89.5424 181.679 89.9866 179.318 88.3619 177.036L90.8386 175.271L90.8447 175.277ZM76.5381 176.507C78.4124 170.981 86.372 168.985 90.8508 175.277L88.3741 177.042C85.3253 172.758 80.4997 174.322 79.4226 177.48L76.5381 176.501V176.507ZM84.2421 195.821C76.4043 191.361 74.5543 182.379 76.5381 176.513L79.4226 177.486C77.8404 182.16 79.3496 189.535 85.7513 193.18L84.2482 195.828L84.2421 195.821ZM87.9785 189.401C87.3578 189.967 86.3963 189.925 85.8304 189.304C85.2645 188.683 85.3071 187.722 85.9278 187.156L87.9785 189.401ZM85.7452 193.174C86.4754 193.588 86.731 194.519 86.3172 195.249C85.9034 195.98 84.9724 196.235 84.2421 195.821L85.7452 193.174Z" fill="black"/>
<g style="mix-blend-mode:multiply" opacity="0.8">
<path d="M185.917 230.843C143.735 230.843 109.54 226.828 109.54 221.876C109.54 216.924 143.735 212.909 185.917 212.909C228.099 212.909 262.294 216.924 262.294 221.876C262.294 226.828 228.099 230.843 185.917 230.843Z" fill="#EFDBF8"/>
</g>
<path d="M206.678 52.0451C226.011 38.5662 250.748 35.5418 255.099 40.3796C258.628 44.2986 245.296 65.7675 247.456 72.0414C249.61 78.3154 268.523 74.2565 270.592 82.2343C271.572 86.0254 257.065 95.1716 257.454 100.466C257.843 105.76 269.046 104.263 269.868 111.115C270.422 115.722 260.198 116.738 260.588 122.227C260.977 127.716 268.359 126.712 268.036 132.03C267.775 136.345 259.706 133.503 257.545 140.757C255.391 148.01 206.672 52.0451 206.672 52.0451H206.678Z" fill="#EE6224"/>
<path d="M292.92 180.779C292.33 163.034 279.946 159.097 270.952 162.128C261.964 165.158 262.463 175.607 264.733 179.538C268.36 185.812 273.684 183.104 271.695 178.71C270.222 174.493 269.948 168.639 276.916 170.501C285.575 172.82 282.879 196.102 264.648 191.526C252.161 188.392 253.14 175.169 254.132 155.884C256.792 137.227 253.913 112.764 245.978 89.5423C229.901 42.4908 133.053 27.1984 100.905 70.7205C59.1411 127.253 105.195 182.471 112.278 189.524C134.343 206.648 130.765 222.141 146.575 223.169C161.599 224.149 160.364 208.881 170.301 208.029C170.885 208.029 171.47 208.029 172.054 208.017C183.719 208.875 185.971 223.425 203.564 223.169C217.9 222.962 211.517 210.439 221.095 204.433C223.103 203.483 224.844 202.814 226.45 202.376C227.716 202.108 229.122 201.913 230.71 201.816C231.075 201.792 233.284 201.804 233.929 201.804C239.619 201.907 243.033 203.252 255.891 205.869C279.058 210.579 293.419 195.792 292.92 180.779Z" fill="#F9C213"/>
<path d="M256.194 204.378C278.534 208.917 291.86 194.726 291.398 180.828L294.441 180.724C294.976 196.856 279.58 212.234 255.586 207.353L256.194 204.372V204.378ZM233.959 200.282C236.941 200.337 239.326 200.72 242.539 201.408C245.783 202.102 249.756 203.069 256.194 204.378L255.586 207.359C249.166 206.051 245.004 205.041 241.9 204.384C238.772 203.714 236.606 203.374 233.898 203.325L233.953 200.282H233.959ZM230.612 200.301C231.044 200.27 233.356 200.282 233.934 200.282V203.325C233.77 203.325 233.508 203.325 233.204 203.325C232.9 203.325 232.553 203.325 232.218 203.325C231.878 203.325 231.555 203.325 231.293 203.325C231.16 203.325 231.05 203.325 230.965 203.325C230.922 203.325 230.886 203.325 230.855 203.325C230.825 203.325 230.813 203.325 230.813 203.325L230.612 200.288V200.301ZM226.139 200.891C227.484 200.605 228.963 200.404 230.618 200.301L230.807 203.337C229.285 203.428 227.959 203.617 226.766 203.867L226.139 200.891ZM220.449 203.063C222.512 202.09 224.338 201.384 226.054 200.915L226.857 203.848C225.36 204.256 223.705 204.889 221.752 205.814L220.449 203.063ZM203.544 221.654C206.91 221.605 208.82 220.838 210.037 219.834C211.279 218.806 212.009 217.358 212.685 215.471C213.975 211.85 214.936 206.508 220.291 203.148L221.91 205.729C217.687 208.376 217.048 212.301 215.551 216.494C214.833 218.514 213.871 220.613 211.979 222.177C210.062 223.765 207.396 224.642 203.587 224.697L203.544 221.654ZM172.169 206.508C178.637 206.982 182.568 211.333 186.597 214.875C190.686 218.471 195.293 221.776 203.544 221.654L203.587 224.697C194.252 224.83 188.934 220.984 184.583 217.157C180.171 213.274 177.14 209.921 171.944 209.538L172.169 206.501V206.508ZM170.307 206.514C170.891 206.514 171.463 206.514 172.029 206.501L172.09 209.544C171.487 209.556 170.885 209.556 170.307 209.556V206.514ZM146.677 221.66C150.158 221.885 152.58 221.173 154.436 220.047C156.329 218.897 157.753 217.248 159.128 215.392C160.442 213.615 161.818 211.473 163.436 209.836C165.134 208.114 167.24 206.775 170.173 206.526L170.434 209.556C168.402 209.733 166.935 210.621 165.603 211.972C164.185 213.408 163.071 215.179 161.574 217.199C160.138 219.141 158.428 221.179 156.018 222.646C153.572 224.131 150.517 224.958 146.483 224.697L146.683 221.66H146.677ZM113.214 188.331C124.484 197.075 129.231 205.449 133.065 211.583C134.994 214.668 136.606 217.035 138.627 218.727C140.586 220.364 143.008 221.423 146.677 221.66L146.483 224.697C142.241 224.423 139.186 223.157 136.679 221.064C134.239 219.025 132.401 216.256 130.49 213.201C126.651 207.055 122.148 199.114 111.352 190.741L113.22 188.337L113.214 188.331ZM102.133 71.633C81.6073 99.4124 82.66 126.808 89.7251 148.21C96.8083 169.679 109.934 185.051 113.36 188.459L111.212 190.613C107.549 186.968 94.1065 171.201 86.8345 149.166C79.5383 127.058 78.449 98.5787 99.6867 69.8257L102.133 71.633ZM244.541 90.041C240.665 78.7041 231.89 69.1745 220.249 61.9269C208.614 54.6854 194.204 49.7868 179.258 47.6752C149.264 43.4459 117.724 50.517 102.133 71.6269L99.6867 69.8196C116.245 47.4074 149.197 40.3667 179.684 44.6629C194.982 46.8171 209.806 51.8436 221.855 59.3407C233.898 66.8378 243.257 76.8603 247.419 89.0491L244.541 90.0349V90.041ZM252.628 155.677C255.245 137.312 252.416 113.092 244.541 90.041L247.419 89.0552C255.416 112.447 258.343 137.153 255.641 156.103L252.628 155.671V155.677ZM264.282 193.01C260.892 192.158 258.318 190.595 256.432 188.331C254.564 186.085 253.474 183.274 252.848 180.067C251.612 173.732 252.129 165.371 252.616 155.823L255.653 155.981C255.154 165.718 254.685 173.61 255.829 179.489C256.395 182.392 257.339 184.674 258.769 186.39C260.18 188.087 262.164 189.347 265.018 190.065L264.276 193.016L264.282 193.01ZM277.317 169.04C280.183 169.807 281.923 172.266 282.69 175.01C283.457 177.767 283.341 181.065 282.319 184.095C281.29 187.138 279.313 190.022 276.258 191.818C273.179 193.625 269.168 194.234 264.288 193.01L265.03 190.059C269.266 191.124 272.436 190.534 274.718 189.195C277.024 187.838 278.594 185.617 279.44 183.122C280.286 180.615 280.359 177.943 279.769 175.825C279.173 173.696 278.004 172.369 276.538 171.98L277.323 169.04H277.317ZM270.264 179.221C269.868 178.083 269.54 176.817 269.406 175.564C269.266 174.328 269.296 173.008 269.716 171.827C270.148 170.598 271.006 169.527 272.424 168.992C273.769 168.481 275.418 168.535 277.317 169.04L276.532 171.98C274.949 171.554 274.018 171.639 273.501 171.834C273.057 172.004 272.771 172.308 272.582 172.838C272.375 173.416 272.321 174.231 272.43 175.223C272.54 176.197 272.801 177.243 273.142 178.211L270.27 179.215L270.264 179.221ZM266.053 178.783C267.708 181.643 269.345 181.832 269.905 181.667C270.197 181.582 270.416 181.387 270.531 181.071C270.647 180.742 270.684 180.158 270.318 179.343L273.087 178.089C273.714 179.471 273.83 180.876 273.398 182.093C272.959 183.323 271.992 184.235 270.75 184.594C268.237 185.319 265.395 183.718 263.424 180.304L266.059 178.783H266.053ZM271.438 163.576C267.556 164.884 265.742 167.744 265.109 170.805C264.458 173.963 265.122 177.17 266.047 178.783L263.412 180.304C262.073 177.98 261.343 174 262.128 170.197C262.931 166.296 265.359 162.413 270.464 160.691L271.438 163.576ZM291.398 180.834C291.112 172.326 288.033 167.428 284.248 164.939C280.414 162.42 275.57 162.182 271.432 163.576L270.458 160.691C275.314 159.054 281.162 159.273 285.915 162.395C290.722 165.554 294.124 171.499 294.434 180.73L291.392 180.834H291.398ZM233.928 201.81V200.288H233.959L233.928 201.81ZM230.709 201.822L230.813 203.337H230.807L230.715 201.822H230.709ZM226.45 202.382L226.048 200.915L226.09 200.903H226.133L226.45 202.382ZM221.094 204.439L220.285 203.148L220.364 203.1L220.443 203.063L221.094 204.439ZM172.053 208.023L172.023 206.501H172.096H172.169L172.059 208.017L172.053 208.023ZM170.3 208.035L170.173 206.52H170.24H170.307V208.041L170.3 208.035ZM112.277 189.53L111.346 190.734L111.273 190.68L111.206 190.613L112.277 189.536V189.53ZM254.132 155.89L252.61 155.811V155.744L252.622 155.677L254.125 155.89H254.132ZM271.694 178.716L270.306 179.343L270.276 179.282L270.252 179.215L271.688 178.716H271.694ZM264.732 179.544L263.418 180.304L264.738 179.544H264.732Z" fill="black"/>
<path d="M229.687 64.0565C196.753 40.7255 158.422 53.4681 153.523 56.7055C148.625 59.9429 141.681 56.097 145.582 46.3787C158.653 13.8346 192.378 -2.71745 201.457 2.88711C211.607 9.15497 198.84 37.1108 205.473 43.6647C210.798 48.9224 214.425 44.9061 223.48 41.8695C231.659 39.1251 229.687 64.0565 229.687 64.0565Z" fill="#EE6224"/>
<path d="M90.1321 88.5254H180.365C191.207 88.5254 199.996 97.3146 199.996 108.157V108.163C199.996 119.005 191.207 127.794 180.365 127.794H90.1321C79.2901 127.794 70.501 119.005 70.501 108.163V108.157C70.501 97.3146 79.2901 88.5254 90.1321 88.5254Z" fill="#585BA8"/>
<path d="M72.0234 108.163C72.0234 118.167 80.129 126.273 90.1332 126.273V129.315C78.4495 129.315 68.9808 119.847 68.9808 108.163H72.0234ZM90.1332 90.0529C80.129 90.0529 72.0234 98.1585 72.0234 108.163H68.9808C68.9808 96.479 78.4495 87.0103 90.1332 87.0103V90.0529ZM180.366 90.0529H90.1332V87.0103H180.366V90.0529ZM198.476 108.163C198.476 98.1585 190.37 90.0529 180.366 90.0529V87.0103C192.05 87.0103 201.519 96.479 201.519 108.163H198.476ZM180.366 126.273C190.37 126.273 198.476 118.167 198.476 108.163H201.519C201.519 119.847 192.05 129.315 180.366 129.315V126.273ZM90.1332 126.273H180.366V129.315H90.1332V126.273Z" fill="#231735"/>
<path d="M159.566 121.192H91.0946C83.9017 121.192 78.072 115.362 78.072 108.169C78.072 100.976 83.9017 95.1467 91.0946 95.1467H159.566C166.759 95.1467 172.589 100.976 172.589 108.169C172.589 115.362 166.759 121.192 159.566 121.192Z" fill="#1C0F2D"/>
<path d="M182.878 162.961C183.256 174.426 187.351 185.081 195.852 184.357C205.242 183.56 207.572 173.817 207.25 163.235" fill="#F9A01B"/>
<path d="M195.724 182.841C199.771 182.501 202.272 180.292 203.806 176.847C205.382 173.3 205.893 168.492 205.735 163.283L208.777 163.192C208.942 168.565 208.443 173.92 206.593 178.089C204.694 182.361 201.335 185.422 195.992 185.878L195.737 182.848L195.724 182.841ZM184.4 162.912C184.582 168.517 185.678 173.793 187.661 177.517C189.627 181.211 192.298 183.134 195.724 182.841L195.98 185.872C190.905 186.304 187.272 183.261 184.978 178.947C182.696 174.663 181.552 168.876 181.357 163.016L184.4 162.918V162.912ZM205.729 163.283C205.704 162.444 206.361 161.744 207.201 161.713C208.041 161.683 208.741 162.346 208.765 163.186L205.722 163.277L205.729 163.283ZM181.357 163.009C181.327 162.17 181.99 161.464 182.83 161.439C183.669 161.409 184.375 162.072 184.4 162.912L181.357 163.009Z" fill="black"/>
<path d="M269.565 132.03C269.565 133.953 268.141 135.188 266.899 136.004C265.646 136.825 263.863 137.665 262.408 138.468C259.244 140.202 256.7 142.186 256.554 145.807L253.512 145.685C253.725 140.294 257.686 137.586 260.942 135.797C262.694 134.835 264.094 134.208 265.226 133.46C266.37 132.705 266.522 132.267 266.522 132.024H269.565V132.03ZM262.11 122.117C262.244 123.991 263.376 124.752 265.25 125.89C266.12 126.413 267.216 127.07 268.062 128.007C268.968 129.012 269.565 130.308 269.565 132.036H266.522C266.522 131.099 266.23 130.521 265.804 130.052C265.311 129.504 264.623 129.072 263.674 128.5C261.922 127.435 259.329 125.957 259.074 122.342L262.11 122.129V122.117ZM271.524 110.275C271.743 112.088 270.837 113.5 269.796 114.541C268.78 115.557 267.398 116.464 266.218 117.267C264.958 118.119 263.869 118.892 263.102 119.738C262.366 120.547 262.049 121.289 262.11 122.111L259.074 122.33C258.934 120.407 259.767 118.886 260.844 117.693C261.891 116.537 263.285 115.575 264.502 114.748C265.792 113.871 266.875 113.153 267.636 112.387C268.372 111.65 268.555 111.121 268.494 110.634L271.512 110.269L271.524 110.275ZM258.97 100.35C259.019 100.989 259.341 101.469 260.218 101.975C261.179 102.522 262.457 102.912 264.039 103.429C265.518 103.916 267.234 104.512 268.634 105.51C270.1 106.557 271.25 108.066 271.518 110.275L268.5 110.64C268.354 109.423 267.776 108.632 266.869 107.987C265.895 107.293 264.599 106.812 263.09 106.319C261.684 105.857 260.005 105.364 258.702 104.616C257.321 103.825 256.08 102.589 255.934 100.575L258.97 100.35ZM272.096 82.027C272.413 84.3942 271.439 86.5057 270.106 88.2948C268.78 90.0778 266.954 91.733 265.226 93.2239C263.443 94.7635 261.8 96.1205 260.583 97.4289C259.317 98.792 258.915 99.7169 258.958 100.35L255.921 100.575C255.775 98.5607 257.035 96.7838 258.35 95.3659C259.713 93.8933 261.556 92.3781 263.23 90.9298C264.958 89.4328 266.552 87.9723 267.66 86.4875C268.761 85.0027 269.236 83.6883 269.072 82.4408L272.09 82.0391L272.096 82.027ZM248.863 71.4629C249.435 72.8625 250.682 73.7327 252.702 74.3047C254.753 74.8828 257.248 75.0471 259.926 75.254C262.488 75.4548 265.262 75.6922 267.471 76.5319C268.603 76.964 269.668 77.5786 270.508 78.4975C271.36 79.4346 271.908 80.6091 272.096 82.027L269.078 82.4286C268.962 81.5827 268.664 80.9986 268.256 80.5482C267.83 80.0858 267.222 79.6963 266.382 79.3738C264.654 78.7166 262.341 78.4914 259.682 78.2845C257.132 78.0837 254.278 77.9072 251.875 77.2257C249.435 76.538 247.122 75.2479 246.045 72.6069L248.863 71.4568V71.4629ZM256.384 39.5638C257.899 41.9735 257.631 44.8823 256.822 47.645C256.001 50.4382 254.504 53.4748 253.055 56.4079C251.577 59.3957 250.128 62.2863 249.258 64.9577C248.376 67.6535 248.187 69.8199 248.863 71.469L246.045 72.6191C244.956 69.9477 245.418 66.9111 246.361 64.0145C247.317 61.0875 248.875 57.984 250.323 55.0569C251.802 52.069 253.171 49.2759 253.901 46.7931C254.637 44.2799 254.607 42.4664 253.81 41.1885L256.384 39.5698V39.5638ZM217.365 44.1399C225.72 40.2088 234.057 37.154 240.909 35.9613C244.329 35.3649 247.475 35.2128 250.11 35.7118C252.757 36.2108 255.021 37.3974 256.384 39.5698L253.81 41.1885C253.031 39.9532 251.662 39.1013 249.544 38.6996C247.414 38.298 244.67 38.3954 241.432 38.9613C234.964 40.0871 226.907 43.0141 218.661 46.8965L217.365 44.146V44.1399Z" fill="black"/>
<path d="M206.545 42.5821C209.642 45.643 213.762 45.6369 217.918 43.8905L219.099 46.6958C214.334 48.6978 208.723 49.0082 204.403 44.7424L206.545 42.576V42.5821ZM202.206 1.56113C205.498 3.41106 206.758 6.92227 207.129 10.6952C207.5 14.4802 207.025 18.9407 206.453 23.2491C205.869 27.6366 205.194 31.8537 205.054 35.4258C204.987 37.2027 205.054 38.724 205.315 39.9654C205.577 41.2068 205.997 42.0466 206.539 42.5821L204.403 44.7485C203.283 43.647 202.668 42.1683 202.34 40.5861C202.011 39.004 201.944 37.1966 202.011 35.3102C202.151 31.5495 202.869 27.095 203.435 22.8536C204.007 18.5269 204.433 14.395 204.098 10.9994C203.764 7.59166 202.705 5.3401 200.709 4.2204L202.2 1.56721L202.206 1.56113ZM144.176 45.8134C150.84 29.2249 162.505 16.7074 173.794 9.04604C179.441 5.21839 185.033 2.57129 189.92 1.25078C194.727 -0.0514771 199.157 -0.148842 202.206 1.56721L200.715 4.2204C198.725 3.10071 195.287 2.95466 190.717 4.18998C186.226 5.40704 180.932 7.88375 175.504 11.5714C164.647 18.9407 153.408 31.0018 147 46.9514L144.176 45.8195V45.8134ZM154.369 57.9779C151.424 59.9252 147.663 59.84 145.211 57.5033C142.722 55.1361 142.101 50.9859 144.176 45.8134L147 46.9453C145.174 51.491 146.075 54.1259 147.31 55.3004C148.576 56.5053 150.736 56.7304 152.696 55.4404L154.375 57.9779H154.369Z" fill="black"/>
<path d="M152.551 55.5433C170.758 44.748 202.572 44.3159 230.638 65.3041L228.818 67.7382C201.617 47.3951 171.13 48.0706 154.103 58.16L152.551 55.5433Z" fill="black"/>
<path d="M117.329 116.366L99.055 103.903L100.832 101.299L119.106 113.762L117.329 116.366ZM99.055 103.903C98.337 103.411 98.1483 102.431 98.6412 101.713C99.1341 100.995 100.114 100.806 100.832 101.299L99.055 103.903ZM119.106 113.762C119.824 114.255 120.013 115.234 119.52 115.952C119.027 116.67 118.047 116.859 117.329 116.366L119.106 113.762Z" fill="white"/>
<path d="M99.055 113.762L117.329 101.299L119.106 103.903L100.832 116.366L99.055 113.762ZM117.329 101.299C118.047 100.806 119.027 100.995 119.52 101.713C120.013 102.431 119.824 103.411 119.106 103.903L117.329 101.299ZM100.832 116.366C100.114 116.859 99.1341 116.67 98.6412 115.952C98.1483 115.234 98.337 114.255 99.055 113.762L100.832 116.366Z" fill="white"/>
<path d="M144.275 116.366L125.994 103.903L127.771 101.299L146.051 113.762L144.275 116.366ZM125.994 103.903C125.276 103.411 125.088 102.431 125.58 101.713C126.073 100.995 127.053 100.806 127.771 101.299L125.994 103.903ZM146.051 113.762C146.769 114.255 146.958 115.234 146.465 115.952C145.972 116.67 144.993 116.859 144.275 116.366L146.051 113.762Z" fill="white"/>
<path d="M125.994 113.762L144.275 101.299L146.051 103.903L127.771 116.366L125.994 113.762ZM144.275 101.299C144.993 100.806 145.972 100.995 146.465 101.713C146.958 102.431 146.769 103.411 146.051 103.903L144.275 101.299ZM127.771 116.366C127.053 116.859 126.073 116.67 125.58 115.952C125.088 115.234 125.276 114.255 125.994 113.762L127.771 116.366Z" fill="white"/>
<path d="M34.0645 164.513L27.9487 170.635" stroke="black" stroke-width="3.6063" stroke-miterlimit="10" stroke-linecap="round"/>
<path d="M40.1855 170.635L34.0637 176.751" stroke="black" stroke-width="3.6063" stroke-miterlimit="10" stroke-linecap="round"/>
<path d="M30.6361 161.086L43.6096 174.06L50.0984 167.571C53.6785 163.991 53.6785 158.173 50.0984 154.593C46.5184 151.013 40.7007 151.013 37.1207 154.593L30.6318 161.082L30.6361 161.086Z" fill="#F15A29" stroke="black" stroke-width="5.54424" stroke-miterlimit="10" stroke-linecap="round"/>
<path d="M132.703 139.008C127.467 139.201 119.567 141.892 119.813 147.295C120.059 152.704 128.567 154.468 135.682 152.426C142.797 150.384 142.252 145.207 141.132 143.453C140.012 141.699 137.561 138.83 132.698 139.008H132.703Z" fill="black"/>
<path d="M130.734 141.515C127.362 141.95 124.854 143.704 124.854 143.704C124.854 143.704 125.347 147.363 131.226 147.248C137.106 147.133 135.493 141.656 135.493 141.656C135.493 141.656 133.943 141.101 130.739 141.51L130.734 141.515Z" fill="white"/>
</svg>
