<svg width="200" height="200" viewBox="0 0 200 200" fill="none" xmlns="http://www.w3.org/2000/svg">
<g style="mix-blend-mode:luminosity">
<path d="M188.943 88.5579C188.622 85.281 188.088 81.5207 187.019 77.3306C185.951 73.1942 184.348 68.6281 181.998 63.9008C179.647 59.1736 176.602 54.2851 172.648 49.5041C171.099 47.624 169.389 45.7975 167.573 44.0248C170.297 33.1198 164.261 23.6653 164.261 23.6653C153.843 23.0207 147.218 26.9421 144.761 28.7149C144.333 28.5537 143.959 28.3388 143.532 28.1777C141.769 27.4793 139.952 26.781 138.029 26.1901C136.159 25.5992 134.236 25.062 132.259 24.5785C130.282 24.095 128.306 23.719 126.276 23.3967C125.902 23.343 125.581 23.2893 125.207 23.2355C120.666 8.62397 107.63 2.5 107.63 2.5C93.0455 11.7934 90.3208 24.7934 90.3208 24.7934C90.3208 24.7934 90.2674 25.062 90.1605 25.5455C89.3592 25.7603 88.5578 26.0289 87.7564 26.2438C86.6345 26.5661 85.5126 26.9959 84.4441 27.4256C83.3222 27.8554 82.2537 28.2851 81.1318 28.7686C78.9413 29.7355 76.7509 30.8099 74.6139 31.9917C72.5304 33.1736 70.5002 34.4628 68.5235 35.8058C68.2564 35.6983 67.9893 35.5909 67.9893 35.5909C47.7948 27.8554 29.8975 37.1488 29.8975 37.1488C28.2413 58.7438 37.9646 72.3347 39.8879 74.8058C39.4071 76.1488 38.9797 77.4917 38.5523 78.8347C37.0564 83.7231 35.9345 88.719 35.24 93.9298C35.1331 94.6818 35.0263 95.4339 34.9729 96.186C16.2742 105.479 10.7715 124.442 10.7715 124.442C26.3181 142.438 44.4824 143.566 44.4824 143.566L44.5359 143.512C46.8331 147.649 49.5044 151.57 52.4961 155.277C53.7783 156.835 55.0605 158.285 56.4496 159.736C50.7866 176.066 57.2509 189.603 57.2509 189.603C74.5605 190.248 85.94 181.975 88.3441 180.095C90.0537 180.686 91.8167 181.223 93.5797 181.653C98.9222 183.05 104.371 183.855 109.821 184.07C111.156 184.124 112.545 184.178 113.881 184.124H114.522H114.95H115.804L116.659 184.07V184.124C124.833 195.835 139.151 197.5 139.151 197.5C149.355 186.702 149.943 175.959 149.943 173.649C149.943 173.649 149.943 173.595 149.943 173.488C149.943 173.273 149.943 173.165 149.943 173.165C149.943 173.004 149.943 172.843 149.943 172.682C152.08 171.178 154.11 169.566 156.033 167.793C160.093 164.087 163.673 159.843 166.665 155.277C166.932 154.847 167.199 154.417 167.466 153.988C179.006 154.632 187.18 146.789 187.18 146.789C185.256 134.702 178.418 128.793 176.976 127.665C176.976 127.665 176.922 127.612 176.815 127.558C176.708 127.504 176.708 127.45 176.708 127.45C176.655 127.397 176.548 127.343 176.441 127.289C176.495 126.537 176.548 125.839 176.602 125.087C176.708 123.798 176.708 122.455 176.708 121.165V120.198V119.715V119.446C176.708 119.124 176.708 119.231 176.708 119.124L176.655 118.318L176.602 117.244C176.602 116.868 176.548 116.545 176.495 116.223C176.441 115.901 176.441 115.525 176.388 115.202L176.281 114.182L176.121 113.161C175.907 111.818 175.693 110.529 175.373 109.186C174.144 103.975 172.114 99.0331 169.496 94.5744C166.825 90.1157 163.513 86.1942 159.719 82.8636C155.98 79.5331 151.759 76.8471 147.378 74.8595C142.944 72.8719 138.35 71.5826 133.755 70.9917C131.458 70.6694 129.161 70.562 126.863 70.6157H126.008H125.795C125.741 70.6157 125.474 70.6157 125.528 70.6157H125.154L124.299 70.6694C123.978 70.6694 123.658 70.7231 123.391 70.7231C122.215 70.8306 121.04 70.9917 119.918 71.2066C115.324 72.0661 110.996 73.7314 107.203 76.0413C103.41 78.3512 100.098 81.1984 97.4263 84.4215C94.755 87.6446 92.6715 91.2438 91.229 94.9504C89.7865 98.657 88.9852 102.525 88.7715 106.231C88.7181 107.145 88.718 108.112 88.718 109.025C88.718 109.24 88.718 109.508 88.718 109.723L88.7715 110.475C88.8249 110.905 88.8249 111.388 88.8783 111.818C89.0386 113.698 89.4126 115.525 89.8934 117.244C90.9085 120.736 92.5112 123.905 94.4879 126.591C96.4646 129.277 98.8687 131.479 101.38 133.252C103.891 134.971 106.615 136.207 109.287 137.012C111.958 137.818 114.629 138.141 117.14 138.141C117.461 138.141 117.781 138.141 118.048 138.141C118.208 138.141 118.369 138.141 118.529 138.141C118.689 138.141 118.85 138.141 119.01 138.087C119.277 138.087 119.544 138.033 119.811 138.033C119.865 138.033 119.971 138.033 120.025 137.979L120.292 137.926C120.452 137.926 120.613 137.872 120.773 137.872C121.093 137.818 121.361 137.764 121.681 137.711C122.002 137.657 122.269 137.603 122.536 137.496C123.124 137.388 123.658 137.174 124.192 137.012C125.261 136.636 126.329 136.207 127.237 135.723C128.199 135.24 129.054 134.649 129.908 134.112C130.122 133.95 130.389 133.789 130.603 133.574C131.458 132.876 131.618 131.587 130.924 130.727C130.336 129.975 129.267 129.76 128.413 130.244C128.199 130.351 127.985 130.459 127.771 130.566C127.024 130.942 126.276 131.264 125.474 131.533C124.673 131.802 123.818 132.017 122.963 132.178C122.536 132.231 122.108 132.285 121.628 132.339C121.414 132.339 121.2 132.393 120.933 132.393C120.719 132.393 120.452 132.393 120.292 132.393C120.078 132.393 119.865 132.393 119.651 132.393C119.384 132.393 119.117 132.393 118.85 132.339C118.85 132.339 118.689 132.339 118.796 132.339H118.689H118.529C118.422 132.339 118.262 132.339 118.155 132.285C117.888 132.231 117.674 132.231 117.407 132.178C115.43 131.909 113.454 131.318 111.584 130.459C109.661 129.599 107.844 128.417 106.188 126.913C104.532 125.409 103.089 123.636 101.967 121.595C100.845 119.554 100.044 117.298 99.6701 114.934C99.5098 113.752 99.403 112.517 99.4564 111.335C99.4564 111.012 99.5098 110.69 99.5098 110.368C99.5098 110.475 99.5098 110.314 99.5098 110.314V110.207V109.938C99.5098 109.777 99.5633 109.616 99.5633 109.455C99.6167 108.81 99.7235 108.165 99.8304 107.521C100.739 102.364 103.303 97.314 107.256 93.5C108.271 92.5331 109.34 91.6736 110.462 90.8678C111.584 90.062 112.813 89.3636 114.095 88.7727C115.377 88.1818 116.659 87.6983 118.048 87.3223C119.384 86.9463 120.773 86.7314 122.215 86.5703C122.91 86.5165 123.604 86.4628 124.352 86.4628C124.566 86.4628 124.673 86.4628 124.833 86.4628H125.421H125.795C125.955 86.4628 125.795 86.4628 125.848 86.4628H126.008L126.596 86.5165C128.145 86.624 129.641 86.8388 131.137 87.2149C134.129 87.8595 137.067 88.9876 139.792 90.4917C145.241 93.5537 149.889 98.281 152.721 103.975C154.163 106.822 155.178 109.884 155.659 113.054C155.766 113.86 155.873 114.665 155.926 115.471L155.98 116.062L156.033 116.653C156.033 116.868 156.033 117.083 156.033 117.244C156.033 117.459 156.033 117.674 156.033 117.835V118.372V118.963C156.033 119.339 155.98 119.983 155.98 120.36C155.926 121.219 155.819 122.132 155.713 122.992C155.606 123.851 155.445 124.711 155.285 125.57C155.125 126.43 154.911 127.289 154.697 128.095C154.27 129.76 153.736 131.426 153.095 133.091C151.813 136.314 150.103 139.43 148.073 142.277C143.959 147.971 138.35 152.591 131.939 155.545C128.733 156.996 125.367 158.07 121.895 158.607C120.185 158.93 118.422 159.091 116.659 159.145H116.339H116.071H115.484H114.629H114.202C114.415 159.145 114.148 159.145 114.148 159.145H113.988C113.026 159.145 112.118 159.091 111.156 158.983C107.417 158.715 103.73 158.017 100.098 156.996C96.5181 155.975 93.0455 154.525 89.7331 152.806C83.1619 149.26 77.2318 144.426 72.6372 138.57C70.34 135.669 68.3098 132.5 66.6537 129.223C64.9975 125.946 63.6619 122.455 62.7002 118.963C61.7386 115.417 61.1509 111.818 60.8838 108.165L60.8304 107.467V107.306V107.145V106.822V106.231V106.07V105.855V105.426V104.566V104.405C60.8304 104.405 60.8304 104.459 60.8304 104.351V104.029C60.8304 103.599 60.8304 103.116 60.8304 102.686C60.8838 100.913 61.0441 99.0331 61.2578 97.2066C61.4715 95.3802 61.792 93.5 62.166 91.6736C62.54 89.8471 62.9674 88.0207 63.5016 86.1942C64.5167 82.595 65.7989 79.1033 67.2948 75.8265C70.34 69.2727 74.2934 63.4174 79.0482 58.7438C80.2235 57.562 81.4523 56.4876 82.7345 55.4132C84.0167 54.3926 85.3523 53.4256 86.7413 52.5124C88.077 51.5992 89.5194 50.7934 90.9619 50.0413C91.6564 49.6653 92.4044 49.2893 93.1523 48.9669C93.5263 48.8058 93.9002 48.6446 94.2742 48.4835C94.6482 48.3223 95.0222 48.1612 95.3961 48C96.892 47.3554 98.4413 46.8182 100.044 46.3347C100.418 46.2273 100.845 46.1198 101.219 45.9587C101.593 45.8512 102.021 45.7438 102.395 45.6364C103.196 45.4215 103.998 45.2066 104.799 45.0455C105.173 44.938 105.6 44.8843 106.028 44.7769C106.455 44.6694 106.829 44.6157 107.256 44.5083C107.684 44.4545 108.058 44.3471 108.485 44.2934L109.073 44.186L109.714 44.0785C110.141 44.0248 110.515 43.9711 110.943 43.9174C111.424 43.8636 111.851 43.8099 112.332 43.7562C112.706 43.7025 113.347 43.6488 113.721 43.595C113.988 43.5413 114.308 43.5413 114.576 43.4876L115.163 43.4339L115.43 43.3802H115.751C116.232 43.3264 116.659 43.3264 117.14 43.2727L117.834 43.219C117.834 43.219 118.102 43.219 117.888 43.219H118.048H118.369C118.743 43.219 119.17 43.1653 119.544 43.1653C121.093 43.1116 122.696 43.1116 124.245 43.1653C127.344 43.2727 130.389 43.6488 133.328 44.186C139.258 45.314 144.814 47.1942 149.889 49.719C154.965 52.1901 159.452 55.2521 163.406 58.5826C163.673 58.7975 163.887 59.0124 164.154 59.2273C164.367 59.4422 164.634 59.657 164.848 59.8719C165.329 60.3017 165.756 60.7314 166.237 61.1612C166.718 61.5909 167.145 62.0207 167.573 62.4504C168 62.8802 168.428 63.3099 168.855 63.7934C170.511 65.5661 172.061 67.3388 173.45 69.1653C176.228 72.7645 178.471 76.4174 180.234 79.8554C180.341 80.0703 180.448 80.2851 180.555 80.5C180.662 80.7149 180.769 80.9298 180.876 81.1446C181.089 81.5744 181.303 82.0041 181.463 82.4339C181.677 82.8636 181.837 83.2397 182.051 83.6694C182.211 84.0992 182.425 84.4752 182.585 84.905C183.226 86.5165 183.867 88.0744 184.348 89.5248C185.15 91.8884 185.737 93.9835 186.218 95.8099C186.378 96.562 187.073 97.0455 187.821 96.938C188.622 96.8843 189.21 96.2397 189.21 95.4339C189.263 93.5 189.21 91.1901 188.943 88.5579Z" fill="#9E9B9B"/>
</g>
</svg>
