<svg width="149" height="30" viewBox="0 0 149 30" fill="none" xmlns="http://www.w3.org/2000/svg">
<path fill-rule="evenodd" clip-rule="evenodd" d="M16.1466 0.0719934L6.98807 16.9605L14.7275 17.3055L10.5595 28.7975C4.18098 26.9334 -0.328323 20.8864 0.018741 13.9587C0.424794 5.85385 7.32431 -0.387306 15.4292 0.0187412C15.67 0.0308084 15.9092 0.0485999 16.1466 0.0719934Z" fill="#5E72E4"/>
<path opacity="0.5" fill-rule="evenodd" clip-rule="evenodd" d="M19.2542 0.721802L15.057 12.2354L22.3187 12.408L13.5654 29.9554C13.696 29.9656 13.8271 29.9741 13.9587 29.9808C22.0636 30.3955 28.9632 24.0211 29.3692 15.7431C29.7085 8.82599 25.4066 2.76853 19.2542 0.721802Z" fill="#5E72E4"/>
<path d="M56.3796 4.32568C58.451 4.32568 60.3233 4.81921 61.9963 5.80625C63.696 6.76662 65.0238 8.10047 65.9799 9.80779C66.9625 11.5151 67.4538 13.4092 67.4538 15.49V24.8936C67.4538 25.3204 67.3077 25.6806 67.0156 25.974C66.7235 26.2675 66.3517 26.4142 65.9002 26.4142C65.4487 26.4142 65.0769 26.2808 64.7848 26.014C64.4927 25.7206 64.3466 25.3471 64.3466 24.8936V22.4927C63.4171 23.7732 62.2354 24.7869 60.8013 25.5338C59.3672 26.2541 57.7871 26.6143 56.0609 26.6143C54.0426 26.6143 52.2102 26.1341 50.5637 25.1737C48.9437 24.1867 47.6557 22.8528 46.6997 21.1722C45.7702 19.4648 45.3054 17.5708 45.3054 15.49C45.3054 13.4092 45.7834 11.5151 46.7395 9.80779C47.7221 8.10047 49.0499 6.76662 50.723 5.80625C52.4226 4.81921 54.3082 4.32568 56.3796 4.32568ZM56.3796 23.8132C57.8933 23.8132 59.261 23.453 60.4826 22.7328C61.7042 22.0125 62.6603 21.0254 63.3507 19.7716C64.0678 18.4911 64.4263 17.0639 64.4263 15.49C64.4263 13.916 64.0678 12.5022 63.3507 11.2483C62.6603 9.96785 61.7042 8.96747 60.4826 8.24719C59.261 7.50024 57.8933 7.12676 56.3796 7.12676C54.8659 7.12676 53.4849 7.50024 52.2367 8.24719C51.0151 8.96747 50.0458 9.96785 49.3288 11.2483C48.6383 12.5022 48.2931 13.916 48.2931 15.49C48.2931 17.0639 48.6383 18.4911 49.3288 19.7716C50.0458 21.0254 51.0151 22.0125 52.2367 22.7328C53.4849 23.453 54.8659 23.8132 56.3796 23.8132Z" fill="#5E72E4"/>
<path d="M94.1735 4.48575C95.7404 4.48575 97.1213 4.85922 98.3164 5.60618C99.538 6.35313 100.481 7.42021 101.145 8.80741C101.835 10.1679 102.18 11.7552 102.18 13.5692V25.0937C102.18 25.5472 102.034 25.9207 101.742 26.2141C101.477 26.4809 101.118 26.6143 100.667 26.6143C100.215 26.6143 99.8434 26.4809 99.5513 26.2141C99.2591 25.9207 99.1131 25.5472 99.1131 25.0937V13.5692C99.1131 11.6752 98.6218 10.1813 97.6392 9.08752C96.6831 7.96708 95.4217 7.40687 93.8548 7.40687C92.1818 7.40687 90.8274 7.96708 89.7916 9.08752C88.7559 10.2079 88.2513 11.6752 88.2779 13.4892V25.0937C88.2779 25.5472 88.1318 25.9207 87.8397 26.2141C87.5742 26.4809 87.2156 26.6143 86.7642 26.6143C86.3127 26.6143 85.9409 26.4809 85.6488 26.2141C85.3567 25.9207 85.2106 25.5472 85.2106 25.0937V13.5692C85.2106 11.6752 84.7193 10.1813 83.7367 9.08752C82.7807 7.96708 81.5192 7.40687 79.9524 7.40687C78.3058 7.40687 76.9514 7.95375 75.8892 9.0475C74.8269 10.1413 74.2958 11.5418 74.2958 13.2491V25.0937C74.2958 25.5472 74.1497 25.9207 73.8576 26.2141C73.592 26.4809 73.2335 26.6143 72.782 26.6143C72.3306 26.6143 71.9588 26.4809 71.6666 26.2141C71.3745 25.9207 71.2285 25.5472 71.2285 25.0937V6.28644C71.2285 5.83293 71.3745 5.45945 71.6666 5.16601C71.9588 4.87256 72.3306 4.72584 72.782 4.72584C73.2335 4.72584 73.592 4.87256 73.8576 5.16601C74.1497 5.45945 74.2958 5.83293 74.2958 6.28644V7.16678C75.0394 6.31312 75.9157 5.65953 76.9249 5.20602C77.9606 4.72584 79.076 4.48575 80.271 4.48575C81.7317 4.48575 83.0462 4.81921 84.2147 5.48613C85.3832 6.15305 86.3127 7.08675 87.0032 8.28721C87.7733 7.08675 88.7692 6.15305 89.9908 5.48613C91.239 4.81921 92.6332 4.48575 94.1735 4.48575Z" fill="#5E72E4"/>
<path d="M106.091 6.28644C106.091 5.83293 106.237 5.45945 106.529 5.16601C106.821 4.87256 107.193 4.72584 107.644 4.72584C108.096 4.72584 108.454 4.87256 108.72 5.16601C109.012 5.45945 109.158 5.83293 109.158 6.28644V25.0537C109.158 25.5072 109.012 25.8806 108.72 26.1741C108.454 26.4675 108.096 26.6143 107.644 26.6143C107.193 26.6143 106.821 26.4675 106.529 26.1741C106.237 25.8806 106.091 25.5072 106.091 25.0537V6.28644Z" fill="#5E72E4"/>
<path d="M131.154 24.2133C131.446 24.5868 131.592 24.9469 131.592 25.2937C131.592 25.6672 131.446 25.9874 131.154 26.2541C130.888 26.4942 130.583 26.6143 130.237 26.6143C129.919 26.6143 129.653 26.5609 129.441 26.4542C129.228 26.3475 129.029 26.1607 128.843 25.894L122.31 17.5308L115.538 26.1341C115.299 26.4542 114.941 26.6143 114.463 26.6143C114.038 26.6143 113.693 26.4809 113.427 26.2141C113.188 25.9473 113.068 25.6272 113.068 25.2537C113.068 24.8269 113.201 24.4668 113.467 24.1733L120.358 15.53L113.825 7.20679C113.56 6.91335 113.427 6.55321 113.427 6.12638C113.427 5.72622 113.546 5.39276 113.785 5.12599C114.024 4.85922 114.37 4.72584 114.821 4.72584C115.273 4.72584 115.658 4.8859 115.976 5.20602L122.39 13.4892L128.724 5.44611C129.095 4.96593 129.534 4.72584 130.038 4.72584C130.463 4.72584 130.795 4.85922 131.034 5.12599C131.3 5.39276 131.432 5.71289 131.432 6.08636C131.432 6.48652 131.286 6.87333 130.994 7.24681L124.382 15.49L131.154 24.2133Z" fill="#5E72E4"/>
<path d="M145.148 4.48575C146.264 4.48575 147.14 4.63247 147.777 4.92592C148.441 5.21936 148.773 5.63285 148.773 6.16639C148.773 6.32646 148.76 6.4465 148.733 6.52653C148.627 6.90001 148.455 7.15344 148.216 7.28682C148.003 7.42021 147.698 7.4869 147.299 7.4869C147.06 7.4869 146.649 7.46022 146.064 7.40687C145.852 7.38019 145.533 7.36685 145.108 7.36685C143.117 7.36685 141.483 7.90039 140.209 8.96747C138.96 10.0345 138.336 11.4217 138.336 13.1291V25.0937C138.336 25.5739 138.204 25.9473 137.938 26.2141C137.672 26.4809 137.301 26.6143 136.823 26.6143C136.345 26.6143 135.973 26.4809 135.707 26.2141C135.442 25.9473 135.309 25.5739 135.309 25.0937V6.24643C135.309 5.76624 135.442 5.39276 135.707 5.12599C135.973 4.85922 136.345 4.72584 136.823 4.72584C137.301 4.72584 137.672 4.85922 137.938 5.12599C138.204 5.39276 138.336 5.76624 138.336 6.24643V8.0071C139.107 6.88667 140.089 6.01967 141.284 5.4061C142.479 4.79253 143.767 4.48575 145.148 4.48575Z" fill="#5E72E4"/>
</svg>
