<svg width="33" height="35" viewBox="0 0 33 35" fill="none" xmlns="http://www.w3.org/2000/svg">
  <path d="M0.144928 1.65332C0.058842 1.94693 0 2.26361 0 2.62534V32.3797C0 32.7359 0.058842 33.0492 0.141569 33.3396L17.3422 17.5186C17.3422 17.5184 0.144928 1.65332 0.144928 1.65332Z" fill="#CCCCDC" fill-opacity="0.65"/>
  <path d="M24.0545 11.3435L3.97164 0.497705C3.17099 0.0249806 2.38278 -0.0948309 1.71686 0.0700307L18.99 16.0044L24.0545 11.3435Z" fill="#CCCCDC" fill-opacity="0.65"/>
  <path d="M31.4591 15.3426L26.0989 12.4475L20.6084 17.4965L26.2008 22.6577L31.416 19.877C33.9619 18.4685 33.0333 16.2013 31.4591 15.3426Z" fill="#CCCCDC" fill-opacity="0.65"/>
  <path d="M1.66586 34.9163C2.34199 35.0999 3.14948 34.99 3.97053 34.5051L24.1146 23.7671L18.9583 19.0105C18.9583 19.0106 1.66586 34.9163 1.66586 34.9163Z" fill="#CCCCDC" fill-opacity="0.65"/>
</svg>