<svg width="12" height="12" viewBox="0 0 12 12" fill="none" xmlns="http://www.w3.org/2000/svg">
<path d="M11.6187 5.29956C11.599 5.09902 11.5661 4.86888 11.5003 4.61244C11.4346 4.35929 11.3359 4.07984 11.1913 3.79052C11.0466 3.50121 10.8592 3.20203 10.6159 2.90943C10.5206 2.79436 10.4154 2.68258 10.3036 2.57408C10.4713 1.90669 10.0998 1.32806 10.0998 1.32806C9.45868 1.28861 9.05101 1.52861 8.89978 1.6371C8.87347 1.62724 8.85046 1.61408 8.82416 1.60422C8.71567 1.56148 8.60389 1.51874 8.48553 1.48258C8.37046 1.44641 8.2521 1.41354 8.13046 1.38395C8.00882 1.35436 7.88717 1.33134 7.76224 1.31162C7.73923 1.30833 7.7195 1.30504 7.69649 1.30176C7.41704 0.407509 6.61484 0.0327148 6.61484 0.0327148C5.71731 0.601482 5.54964 1.3971 5.54964 1.3971C5.54964 1.3971 5.54635 1.41354 5.53978 1.44313C5.49046 1.45628 5.44115 1.47271 5.39183 1.48587C5.32279 1.50559 5.25375 1.53189 5.188 1.55819C5.11895 1.5845 5.0532 1.6108 4.98416 1.64039C4.84937 1.69956 4.71457 1.76532 4.58306 1.83765C4.45484 1.90998 4.32991 1.98888 4.20827 2.07107C4.19183 2.0645 4.17539 2.05792 4.17539 2.05792C2.93265 1.5845 1.83128 2.15326 1.83128 2.15326C1.72937 3.47491 2.32772 4.30669 2.44608 4.45792C2.41649 4.54011 2.39019 4.6223 2.36389 4.7045C2.27183 5.00367 2.20279 5.30943 2.16005 5.62833C2.15347 5.67436 2.1469 5.72039 2.14361 5.76641C0.992927 6.33518 0.654297 7.49573 0.654297 7.49573C1.61101 8.5971 2.72882 8.66614 2.72882 8.66614L2.7321 8.66285C2.87347 8.916 3.03786 9.156 3.22197 9.38285C3.30087 9.47819 3.37978 9.56696 3.46526 9.65573C3.11676 10.6552 3.51457 11.4837 3.51457 11.4837C4.57978 11.5231 5.28005 11.0168 5.428 10.9018C5.5332 10.9379 5.64169 10.9708 5.75019 10.9971C6.07895 11.0826 6.4143 11.1319 6.74964 11.145C6.83183 11.1483 6.91731 11.1516 6.9995 11.1483H7.03895H7.06526H7.11786L7.17046 11.145V11.1483C7.67347 11.865 8.55457 11.967 8.55457 11.967C9.18252 11.3061 9.21868 10.6486 9.21868 10.5072C9.21868 10.5072 9.21868 10.5039 9.21868 10.4974C9.21868 10.4842 9.21868 10.4776 9.21868 10.4776C9.21868 10.4678 9.21868 10.4579 9.21868 10.4481C9.35019 10.356 9.47512 10.2574 9.59347 10.1489C9.84334 9.92203 10.0636 9.6623 10.2477 9.38285C10.2642 9.35655 10.2806 9.33025 10.297 9.30395C11.0072 9.3434 11.5102 8.8634 11.5102 8.8634C11.3918 8.12367 10.971 7.76203 10.8822 7.69299C10.8822 7.69299 10.879 7.6897 10.8724 7.68641C10.8658 7.68313 10.8658 7.67984 10.8658 7.67984C10.8625 7.67655 10.8559 7.67326 10.8494 7.66997C10.8527 7.62395 10.8559 7.58121 10.8592 7.53518C10.8658 7.45628 10.8658 7.37408 10.8658 7.29518V7.236V7.20641V7.18997C10.8658 7.17025 10.8658 7.17682 10.8658 7.17025L10.8625 7.12093L10.8592 7.05518C10.8592 7.03217 10.8559 7.01244 10.8527 6.99271C10.8494 6.97299 10.8494 6.94997 10.8461 6.93025L10.8395 6.86778L10.8296 6.80532C10.8165 6.72313 10.8033 6.64422 10.7836 6.56203C10.708 6.24313 10.5831 5.94066 10.422 5.66778C10.2576 5.39491 10.0537 5.15491 9.82032 4.95107C9.59019 4.74724 9.33046 4.58285 9.06087 4.46121C8.788 4.33956 8.50526 4.26066 8.22252 4.2245C8.08115 4.20477 7.93978 4.19819 7.79841 4.20148H7.7458H7.73265C7.72937 4.20148 7.71293 4.20148 7.71621 4.20148H7.6932L7.6406 4.20477C7.62087 4.20477 7.60115 4.20806 7.58471 4.20806C7.51238 4.21463 7.44005 4.2245 7.37101 4.23765C7.08827 4.29025 6.82197 4.39217 6.58854 4.53354C6.35512 4.67491 6.15128 4.84915 5.9869 5.04641C5.82252 5.24367 5.6943 5.46395 5.60553 5.6908C5.51676 5.91765 5.46745 6.15436 5.4543 6.38121C5.45101 6.4371 5.45101 6.49628 5.45101 6.55217C5.45101 6.56532 5.45101 6.58176 5.45101 6.59491L5.4543 6.64093C5.45758 6.66723 5.45758 6.69682 5.46087 6.72313C5.47073 6.83819 5.49375 6.94997 5.52334 7.05518C5.5858 7.26888 5.68443 7.46285 5.80608 7.62724C5.92772 7.79162 6.07567 7.92641 6.23019 8.03491C6.38471 8.14011 6.55238 8.21573 6.71676 8.26504C6.88115 8.31436 7.04553 8.33408 7.20005 8.33408C7.21978 8.33408 7.2395 8.33408 7.25594 8.33408C7.2658 8.33408 7.27567 8.33408 7.28553 8.33408C7.29539 8.33408 7.30526 8.33408 7.31512 8.3308C7.33156 8.3308 7.348 8.32751 7.36443 8.32751C7.36772 8.32751 7.3743 8.32751 7.37758 8.32422L7.39402 8.32093C7.40389 8.32093 7.41375 8.31765 7.42361 8.31765C7.44334 8.31436 7.45978 8.31107 7.4795 8.30778C7.49923 8.30449 7.51567 8.30121 7.5321 8.29463C7.56827 8.28806 7.60115 8.27491 7.63402 8.26504C7.69978 8.24203 7.76553 8.21573 7.82142 8.18614C7.8806 8.15655 7.9332 8.12039 7.9858 8.08751C7.99895 8.07765 8.01539 8.06778 8.02854 8.05463C8.08115 8.01189 8.09101 7.93299 8.04827 7.88039C8.0121 7.83436 7.94635 7.82121 7.89375 7.8508C7.8806 7.85737 7.86745 7.86395 7.8543 7.87052C7.80827 7.89354 7.76224 7.91326 7.71293 7.9297C7.66361 7.94614 7.61101 7.95929 7.55841 7.96915C7.5321 7.97244 7.5058 7.97573 7.47621 7.97902C7.46306 7.97902 7.44991 7.9823 7.43347 7.9823C7.42032 7.9823 7.40389 7.9823 7.39402 7.9823C7.38087 7.9823 7.36772 7.9823 7.35457 7.9823C7.33813 7.9823 7.32169 7.9823 7.30526 7.97902C7.30526 7.97902 7.29539 7.97902 7.30197 7.97902H7.29539H7.28553C7.27895 7.97902 7.26909 7.97902 7.26252 7.97573C7.24608 7.97244 7.23293 7.97244 7.21649 7.96915C7.09484 7.95271 6.9732 7.91655 6.85813 7.86395C6.73978 7.81134 6.628 7.73902 6.52608 7.64696C6.42416 7.55491 6.33539 7.44641 6.26635 7.32148C6.19731 7.19655 6.14799 7.05847 6.12498 6.91381C6.11512 6.84148 6.10854 6.76587 6.11183 6.69354C6.11183 6.67381 6.11512 6.65408 6.11512 6.63436C6.11512 6.64093 6.11512 6.63107 6.11512 6.63107V6.6245V6.60806C6.11512 6.59819 6.11841 6.58833 6.11841 6.57847C6.12169 6.53902 6.12827 6.49956 6.13484 6.46011C6.19073 6.1445 6.34854 5.83545 6.59183 5.60203C6.6543 5.54285 6.72005 5.49025 6.78909 5.44093C6.85813 5.39162 6.93375 5.34888 7.01265 5.31271C7.09156 5.27655 7.17046 5.24696 7.25594 5.22395C7.33813 5.20093 7.42361 5.18778 7.51238 5.17792C7.55512 5.17463 7.59786 5.17134 7.64389 5.17134C7.65704 5.17134 7.66361 5.17134 7.67347 5.17134H7.70964H7.73265C7.74252 5.17134 7.73265 5.17134 7.73594 5.17134H7.7458L7.78197 5.17463C7.87731 5.18121 7.96936 5.19436 8.06142 5.21737C8.24553 5.25682 8.42635 5.32587 8.59402 5.41792C8.92936 5.60532 9.21539 5.89463 9.38964 6.24313C9.47841 6.41737 9.54087 6.60477 9.57046 6.79874C9.57704 6.84806 9.58361 6.89737 9.5869 6.94669L9.59019 6.98285L9.59347 7.01902C9.59347 7.03217 9.59347 7.04532 9.59347 7.05518C9.59347 7.06833 9.59347 7.08148 9.59347 7.09134V7.12422V7.16039C9.59347 7.1834 9.59019 7.22285 9.59019 7.24587C9.5869 7.29847 9.58032 7.35436 9.57375 7.40696C9.56717 7.45956 9.55731 7.51217 9.54745 7.56477C9.53758 7.61737 9.52443 7.66998 9.51128 7.71929C9.48498 7.82121 9.4521 7.92313 9.41265 8.02504C9.33375 8.2223 9.22854 8.41299 9.10361 8.58724C8.85046 8.93573 8.50526 9.21847 8.11073 9.39929C7.91347 9.48806 7.70635 9.55381 7.49265 9.58669C7.38745 9.60641 7.27895 9.61628 7.17046 9.61956H7.15074H7.1343H7.09813H7.04553H7.01923C7.03238 9.61956 7.01594 9.61956 7.01594 9.61956H7.00608C6.9469 9.61956 6.89101 9.61628 6.83183 9.6097C6.60169 9.59326 6.37484 9.55052 6.15128 9.48806C5.93101 9.42559 5.71731 9.33682 5.51347 9.23162C5.10909 9.01463 4.74416 8.71874 4.46142 8.36039C4.32005 8.18285 4.19512 7.98888 4.0932 7.78833C3.99128 7.58778 3.90909 7.37408 3.84991 7.16039C3.79073 6.9434 3.75457 6.72313 3.73813 6.49956L3.73484 6.45682V6.44696V6.4371V6.41737V6.38121V6.37135V6.35819V6.33189V6.27929V6.26943C3.73484 6.26943 3.73484 6.27271 3.73484 6.26614V6.24641C3.73484 6.22011 3.73484 6.19052 3.73484 6.16422C3.73813 6.05573 3.748 5.94066 3.76115 5.82888C3.7743 5.7171 3.79402 5.60203 3.81704 5.49025C3.84005 5.37847 3.86635 5.26669 3.89923 5.15491C3.96169 4.93463 4.0406 4.72093 4.13265 4.52039C4.32005 4.11929 4.56334 3.76093 4.85594 3.47491C4.92827 3.40258 5.00389 3.33682 5.08279 3.27107C5.16169 3.2086 5.24389 3.14943 5.32937 3.09354C5.41156 3.03765 5.50032 2.98833 5.58909 2.9423C5.63183 2.91929 5.67786 2.89628 5.72389 2.87655C5.7469 2.86669 5.76991 2.85682 5.79293 2.84696C5.81594 2.8371 5.83895 2.82724 5.86197 2.81737C5.95402 2.77792 6.04937 2.74504 6.148 2.71545C6.17101 2.70888 6.19731 2.7023 6.22032 2.69244C6.24334 2.68587 6.26964 2.67929 6.29265 2.67271C6.34197 2.65956 6.39128 2.64641 6.4406 2.63655C6.46361 2.62997 6.48991 2.62669 6.51621 2.62011C6.54252 2.61354 6.56553 2.61025 6.59183 2.60367C6.61813 2.60039 6.64115 2.59381 6.66745 2.59052L6.70361 2.58395L6.74306 2.57737C6.76937 2.57408 6.79238 2.5708 6.81868 2.56751C6.84827 2.56422 6.87457 2.56093 6.90416 2.55765C6.92717 2.55436 6.96663 2.55107 6.98964 2.54778C7.00608 2.5445 7.0258 2.5445 7.04224 2.54121L7.07841 2.53792L7.09484 2.53463H7.11457C7.14416 2.53134 7.17046 2.53134 7.20005 2.52806L7.24279 2.52477C7.24279 2.52477 7.25923 2.52477 7.24608 2.52477H7.25594H7.27567C7.29868 2.52477 7.32498 2.52148 7.348 2.52148C7.44334 2.51819 7.54197 2.51819 7.63731 2.52148C7.82799 2.52806 8.01539 2.55107 8.19621 2.58395C8.56115 2.65299 8.90306 2.76806 9.21539 2.92258C9.52772 3.07381 9.80389 3.26121 10.0472 3.46504C10.0636 3.47819 10.0768 3.49134 10.0932 3.5045C10.1064 3.51765 10.1228 3.5308 10.1359 3.54395C10.1655 3.57025 10.1918 3.59655 10.2214 3.62285C10.251 3.64915 10.2773 3.67545 10.3036 3.70176C10.3299 3.72806 10.3562 3.75436 10.3825 3.78395C10.4844 3.89244 10.5798 4.00093 10.6653 4.11271C10.8362 4.33299 10.9743 4.55655 11.0828 4.76696C11.0894 4.78011 11.0959 4.79326 11.1025 4.80641C11.1091 4.81956 11.1157 4.83271 11.1222 4.84587C11.1354 4.87217 11.1485 4.89847 11.1584 4.92477C11.1716 4.95107 11.1814 4.97408 11.1946 5.00039C11.2044 5.02669 11.2176 5.0497 11.2274 5.076C11.2669 5.17463 11.3064 5.26997 11.3359 5.35874C11.3853 5.5034 11.4214 5.63162 11.451 5.7434C11.4609 5.78943 11.5036 5.81902 11.5496 5.81244C11.599 5.80915 11.6351 5.7697 11.6351 5.72039C11.6384 5.60203 11.6351 5.46066 11.6187 5.29956Z" fill="url(#paint0_linear)"/>
<defs>
<linearGradient id="paint0_linear" x1="6.14471" y1="3.59984" x2="6.14471" y2="11.9998" gradientUnits="userSpaceOnUse">
<stop stop-color="#F05A28"/>
<stop offset="1" stop-color="#FBCA0A"/>
<stop offset="1" stop-color="#FBCA0A"/>
</linearGradient>
</defs>
</svg>
