<svg width="16" height="14" viewBox="0 0 16 14" fill="none" xmlns="http://www.w3.org/2000/svg">
<path d="M13.9963 1.71183C13.2187 0.932253 12.188 0.456443 11.0903 0.370349C9.99262 0.284256 8.90033 0.593556 8.01074 1.24238C7.07745 0.548204 5.91581 0.233431 4.75973 0.36145C3.60365 0.489468 2.53901 1.05077 1.78021 1.93232C1.02141 2.81387 0.624803 3.95018 0.670266 5.11244C0.715728 6.2747 1.19988 7.37656 2.02522 8.19615L6.58038 12.7586C6.96182 13.134 7.47556 13.3444 8.01074 13.3444C8.54593 13.3444 9.05966 13.134 9.44111 12.7586L13.9963 8.19615C14.8527 7.33446 15.3334 6.1689 15.3334 4.95399C15.3334 3.73908 14.8527 2.57352 13.9963 1.71183Z" fill="#6CCF8E"/>
</svg>
