<svg width="16" height="14" viewBox="0 0 16 14" fill="none" xmlns="http://www.w3.org/2000/svg">
<path d="M13.9863 1.68881C13.2081 0.910402 12.1764 0.437137 11.0788 0.355084C9.98115 0.273032 8.89053 0.587642 8.00525 1.2417C7.07266 0.548043 5.91188 0.233506 4.75667 0.361429C3.60145 0.489352 2.53761 1.05023 1.77937 1.93112C1.02114 2.81201 0.624834 3.94748 0.670263 5.10887C0.715692 6.27026 1.19948 7.3713 2.02421 8.19027L7.48484 13.6582C7.55298 13.7269 7.63405 13.7815 7.72337 13.8187C7.81269 13.8559 7.90849 13.875 8.00525 13.875C8.10202 13.875 8.19782 13.8559 8.28714 13.8187C8.37646 13.7815 8.45752 13.7269 8.52566 13.6582L13.9863 8.19027C14.4134 7.76348 14.7522 7.25672 14.9833 6.69894C15.2144 6.14117 15.3334 5.54331 15.3334 4.93954C15.3334 4.33577 15.2144 3.73792 14.9833 3.18014C14.7522 2.62237 14.4134 2.1156 13.9863 1.68881ZM12.9528 7.14945L8.00525 12.097L3.0577 7.14945C2.48995 6.59497 2.15463 5.84511 2.11989 5.05227C2.08516 4.25944 2.35361 3.48313 2.87069 2.88111C3.38777 2.2791 4.11467 1.89656 4.90367 1.81124C5.69266 1.72592 6.48454 1.94422 7.11836 2.42178L5.86498 5.35367C5.82142 5.44916 5.79888 5.5529 5.79888 5.65785C5.79888 5.76281 5.82142 5.86654 5.86498 5.96204C5.91153 6.05742 5.97824 6.14156 6.0605 6.20863C6.14276 6.27571 6.2386 6.32412 6.34141 6.35051L8.37174 6.86359L7.34558 8.98188C7.30305 9.06848 7.27803 9.16262 7.27197 9.2589C7.2659 9.35519 7.2789 9.45173 7.31023 9.54298C7.34155 9.63423 7.39058 9.7184 7.45451 9.79066C7.51844 9.86292 7.596 9.92184 7.68275 9.96406C7.78326 10.0127 7.89357 10.0378 8.00525 10.0374C8.14263 10.0376 8.27731 9.9993 8.39395 9.92672C8.51059 9.85415 8.60448 9.75026 8.66493 9.62689L10.1309 6.69501C10.1778 6.59656 10.2021 6.48888 10.2021 6.37983C10.2021 6.27078 10.1778 6.16311 10.1309 6.06465C10.0824 5.96637 10.0136 5.87957 9.92887 5.81004C9.84418 5.74052 9.74562 5.68988 9.63978 5.66152L7.56547 5.14111L8.62828 2.65634C9.2241 2.08092 10.0241 1.76577 10.8523 1.7802C11.6805 1.79463 12.469 2.13747 13.0444 2.7333C13.6198 3.32912 13.935 4.12912 13.9206 4.95731C13.9061 5.7855 13.5633 6.57404 12.9675 7.14945H12.9528Z" fill="#FF5286"/>
</svg>
