<svg width="14" height="34" viewBox="0 0 14 34" fill="none" xmlns="http://www.w3.org/2000/svg">
<path d="M6.2207 13.436C6.93327 13.436 7.60465 13.2982 8.23486 13.0225C8.86507 12.7503 9.42008 12.3743 9.8999 11.8945C10.3797 11.4147 10.7557 10.8615 11.0278 10.2349C11.3 9.60465 11.436 8.93148 11.436 8.21533C11.436 7.50277 11.2982 6.83138 11.0225 6.20117C10.7503 5.57096 10.3743 5.01595 9.89453 4.53613C9.41471 4.05632 8.8597 3.68034 8.22949 3.4082C7.59928 3.13607 6.9279 3 6.21533 3C5.50277 3 4.83138 3.13607 4.20117 3.4082C3.57454 3.68034 3.01953 4.05632 2.53613 4.53613C2.05632 5.01595 1.68034 5.57096 1.4082 6.20117C1.13607 6.83138 1 7.50277 1 8.21533C1 8.93148 1.13607 9.60465 1.4082 10.2349C1.68392 10.8615 2.06169 11.4147 2.5415 11.8945C3.02132 12.3743 3.57454 12.7503 4.20117 13.0225C4.83138 13.2982 5.50456 13.436 6.2207 13.436ZM6.2207 12.48C5.62988 12.48 5.07666 12.369 4.56104 12.147C4.04541 11.9285 3.59245 11.6242 3.20215 11.2339C2.81185 10.8436 2.50749 10.3906 2.28906 9.875C2.07064 9.35938 1.96143 8.80615 1.96143 8.21533C1.96143 7.62451 2.07064 7.07129 2.28906 6.55566C2.50749 6.04004 2.81185 5.58708 3.20215 5.19678C3.59245 4.80648 4.04362 4.50212 4.55566 4.28369C5.07129 4.06527 5.62451 3.95605 6.21533 3.95605C6.80615 3.95605 7.35938 4.06527 7.875 4.28369C8.39062 4.50212 8.84359 4.80648 9.23389 5.19678C9.62419 5.58708 9.92855 6.04004 10.147 6.55566C10.369 7.07129 10.48 7.62451 10.48 8.21533C10.4836 8.80615 10.3743 9.35938 10.1523 9.875C9.93392 10.3906 9.62956 10.8436 9.23926 11.2339C8.85254 11.6242 8.39958 11.9285 7.88037 12.147C7.36475 12.369 6.81152 12.48 6.2207 12.48ZM4.98535 9.39697C5.28255 9.69417 5.59229 9.95736 5.91455 10.1865C6.2404 10.4121 6.56266 10.584 6.88135 10.7021C7.20361 10.8167 7.50798 10.8579 7.79443 10.8257C8.08089 10.7935 8.33512 10.6663 8.55713 10.4443C8.57503 10.43 8.59115 10.4139 8.60547 10.396C8.61979 10.3781 8.63411 10.3602 8.64844 10.3423C8.75944 10.2134 8.8221 10.0719 8.83643 9.91797C8.85433 9.764 8.78988 9.63151 8.64307 9.52051C8.56071 9.46322 8.47656 9.40413 8.39062 9.34326C8.30827 9.28239 8.21338 9.21615 8.10596 9.14453C8.00212 9.06934 7.88216 8.98519 7.74609 8.89209C7.5957 8.78825 7.4668 8.74528 7.35938 8.76318C7.25195 8.78109 7.14095 8.84554 7.02637 8.95654L6.82764 9.1499C6.79541 9.18213 6.75781 9.19824 6.71484 9.19824C6.67188 9.19466 6.63607 9.18213 6.60742 9.16064C6.5179 9.10693 6.40332 9.02637 6.26367 8.91895C6.1276 8.80794 5.98796 8.68083 5.84473 8.5376C5.70866 8.39795 5.58333 8.2583 5.46875 8.11865C5.35417 7.979 5.27181 7.86621 5.22168 7.78027C5.20378 7.75163 5.19124 7.71761 5.18408 7.67822C5.1805 7.63883 5.19661 7.60124 5.23242 7.56543L5.43115 7.35596C5.54215 7.23421 5.60661 7.12142 5.62451 7.01758C5.646 6.91374 5.60124 6.78841 5.49023 6.6416L4.86719 5.76074C4.79915 5.66048 4.72038 5.59782 4.63086 5.57275C4.54134 5.54411 4.44287 5.54948 4.33545 5.58887C4.23161 5.62467 4.12419 5.68376 4.01318 5.76611C3.99886 5.77327 3.98633 5.78223 3.97559 5.79297C3.96484 5.80371 3.9541 5.81445 3.94336 5.8252C3.72135 6.0472 3.59424 6.30322 3.56201 6.59326C3.52979 6.87972 3.57096 7.18408 3.68555 7.50635C3.80371 7.82503 3.97559 8.1473 4.20117 8.47314C4.42676 8.79541 4.68815 9.10335 4.98535 9.39697Z" fill="#CCCCDC"/>
<path d="M6.0332 13.0295L6.0332 24.543" stroke="#CCCCDC"/>
<path fill-rule="evenodd" clip-rule="evenodd" d="M6 31.0005C7.65685 31.0005 9 29.6573 9 28.0005C9 26.3436 7.65685 25.0005 6 25.0005C4.34315 25.0005 3 26.3436 3 28.0005C3 29.6573 4.34315 31.0005 6 31.0005ZM6 32.0005C8.20914 32.0005 10 30.2096 10 28.0005C10 25.7913 8.20914 24.0005 6 24.0005C3.79086 24.0005 2 25.7913 2 28.0005C2 30.2096 3.79086 32.0005 6 32.0005Z" fill="#CCCCDC"/>
</svg>
