<svg width="36" height="37" viewBox="0 0 36 37" fill="none" xmlns="http://www.w3.org/2000/svg">
<path d="M7.56352 23.627C7.56352 25.7084 5.8632 27.4087 3.78176 27.4087C1.70033 27.4087 0 25.7084 0 23.627C0 21.5455 1.70033 19.8452 3.78176 19.8452H7.56352V23.627Z" fill="#E01E5A"/>
<path d="M9.46907 23.627C9.46907 21.5455 11.1694 19.8452 13.2508 19.8452C15.3323 19.8452 17.0326 21.5455 17.0326 23.627V33.096C17.0326 35.1774 15.3323 36.8778 13.2508 36.8778C11.1694 36.8778 9.46907 35.1774 9.46907 33.096V23.627Z" fill="#E01E5A"/>
<path d="M13.2508 8.44144C11.1694 8.44144 9.46907 6.74112 9.46907 4.65969C9.46907 2.57825 11.1694 0.87793 13.2508 0.87793C15.3323 0.87793 17.0326 2.57825 17.0326 4.65969V8.44144H13.2508Z" fill="#36C5F0"/>
<path d="M13.2508 10.3472C15.3323 10.3472 17.0326 12.0475 17.0326 14.1289C17.0326 16.2104 15.3323 17.9107 13.2508 17.9107H3.78176C1.70033 17.9107 0 16.2104 0 14.1289C0 12.0475 1.70033 10.3472 3.78176 10.3472H13.2508Z" fill="#36C5F0"/>
<path d="M28.4365 14.1289C28.4365 12.0475 30.1368 10.3472 32.2183 10.3472C34.2997 10.3472 36 12.0475 36 14.1289C36 16.2104 34.2997 17.9107 32.2183 17.9107H28.4365V14.1289Z" fill="#2EB67D"/>
<path d="M26.5309 14.1287C26.5309 16.2102 24.8306 17.9105 22.7492 17.9105C20.6677 17.9105 18.9674 16.2102 18.9674 14.1287V4.65969C18.9674 2.57825 20.6677 0.87793 22.7492 0.87793C24.8306 0.87793 26.5309 2.57825 26.5309 4.65969V14.1287Z" fill="#2EB67D"/>
<path d="M22.7492 29.3145C24.8306 29.3145 26.5309 31.0148 26.5309 33.0962C26.5309 35.1776 24.8306 36.878 22.7492 36.878C20.6677 36.878 18.9674 35.1776 18.9674 33.0962V29.3145H22.7492Z" fill="#ECB22E"/>
<path d="M22.7492 27.4087C20.6677 27.4087 18.9674 25.7084 18.9674 23.627C18.9674 21.5455 20.6677 19.8452 22.7492 19.8452H32.2182C34.2997 19.8452 36 21.5455 36 23.627C36 25.7084 34.2997 27.4087 32.2182 27.4087H22.7492Z" fill="#ECB22E"/>
</svg>
