<svg width="28" height="30" viewBox="0 0 28 30" fill="none" xmlns="http://www.w3.org/2000/svg">
<path d="M13.9998 24.3335C14.2635 24.3335 14.5213 24.2553 14.7406 24.1088C14.9599 23.9623 15.1308 23.754 15.2317 23.5104C15.3326 23.2668 15.359 22.9987 15.3076 22.74C15.2561 22.4814 15.1291 22.2438 14.9426 22.0574C14.7562 21.8709 14.5186 21.7439 14.26 21.6924C14.0013 21.641 13.7332 21.6674 13.4896 21.7683C13.246 21.8692 13.0377 22.0401 12.8912 22.2594C12.7447 22.4787 12.6665 22.7365 12.6665 23.0002C12.6665 23.3538 12.807 23.6929 13.057 23.943C13.3071 24.193 13.6462 24.3335 13.9998 24.3335ZM20.6665 24.3335C20.9302 24.3335 21.188 24.2553 21.4073 24.1088C21.6265 23.9623 21.7974 23.754 21.8983 23.5104C21.9993 23.2668 22.0257 22.9987 21.9742 22.74C21.9228 22.4814 21.7958 22.2438 21.6093 22.0574C21.4228 21.8709 21.1853 21.7439 20.9266 21.6924C20.668 21.641 20.3999 21.6674 20.1563 21.7683C19.9126 21.8692 19.7044 22.0401 19.5579 22.2594C19.4114 22.4787 19.3332 22.7365 19.3332 23.0002C19.3332 23.3538 19.4736 23.6929 19.7237 23.943C19.9737 24.193 20.3129 24.3335 20.6665 24.3335ZM20.6665 19.0002C20.9302 19.0002 21.188 18.922 21.4073 18.7755C21.6265 18.6289 21.7974 18.4207 21.8983 18.1771C21.9993 17.9334 22.0257 17.6653 21.9742 17.4067C21.9228 17.1481 21.7958 16.9105 21.6093 16.724C21.4228 16.5375 21.1853 16.4106 20.9266 16.3591C20.668 16.3077 20.3999 16.3341 20.1563 16.435C19.9126 16.5359 19.7044 16.7068 19.5579 16.9261C19.4114 17.1453 19.3332 17.4031 19.3332 17.6668C19.3332 18.0205 19.4736 18.3596 19.7237 18.6096C19.9737 18.8597 20.3129 19.0002 20.6665 19.0002ZM13.9998 19.0002C14.2635 19.0002 14.5213 18.922 14.7406 18.7755C14.9599 18.6289 15.1308 18.4207 15.2317 18.1771C15.3326 17.9334 15.359 17.6653 15.3076 17.4067C15.2561 17.1481 15.1291 16.9105 14.9426 16.724C14.7562 16.5375 14.5186 16.4106 14.26 16.3591C14.0013 16.3077 13.7332 16.3341 13.4896 16.435C13.246 16.5359 13.0377 16.7068 12.8912 16.9261C12.7447 17.1453 12.6665 17.4031 12.6665 17.6668C12.6665 18.0205 12.807 18.3596 13.057 18.6096C13.3071 18.8597 13.6462 19.0002 13.9998 19.0002ZM23.3332 3.00016H21.9998V1.66683C21.9998 1.31321 21.8594 0.974069 21.6093 0.72402C21.3593 0.473972 21.0201 0.333496 20.6665 0.333496C20.3129 0.333496 19.9737 0.473972 19.7237 0.72402C19.4736 0.974069 19.3332 1.31321 19.3332 1.66683V3.00016H8.6665V1.66683C8.6665 1.31321 8.52603 0.974069 8.27598 0.72402C8.02593 0.473972 7.68679 0.333496 7.33317 0.333496C6.97955 0.333496 6.64041 0.473972 6.39036 0.72402C6.14031 0.974069 5.99984 1.31321 5.99984 1.66683V3.00016H4.6665C3.60564 3.00016 2.58822 3.42159 1.83808 4.17174C1.08793 4.92188 0.666504 5.9393 0.666504 7.00016V25.6668C0.666504 26.7277 1.08793 27.7451 1.83808 28.4953C2.58822 29.2454 3.60564 29.6668 4.6665 29.6668H23.3332C24.394 29.6668 25.4115 29.2454 26.1616 28.4953C26.9117 27.7451 27.3332 26.7277 27.3332 25.6668V7.00016C27.3332 5.9393 26.9117 4.92188 26.1616 4.17174C25.4115 3.42159 24.394 3.00016 23.3332 3.00016ZM24.6665 25.6668C24.6665 26.0205 24.526 26.3596 24.276 26.6096C24.0259 26.8597 23.6868 27.0002 23.3332 27.0002H4.6665C4.31288 27.0002 3.97374 26.8597 3.7237 26.6096C3.47365 26.3596 3.33317 26.0205 3.33317 25.6668V13.6668H24.6665V25.6668ZM24.6665 11.0002H3.33317V7.00016C3.33317 6.64654 3.47365 6.3074 3.7237 6.05735C3.97374 5.80731 4.31288 5.66683 4.6665 5.66683H5.99984V7.00016C5.99984 7.35378 6.14031 7.69292 6.39036 7.94297C6.64041 8.19302 6.97955 8.3335 7.33317 8.3335C7.68679 8.3335 8.02593 8.19302 8.27598 7.94297C8.52603 7.69292 8.6665 7.35378 8.6665 7.00016V5.66683H19.3332V7.00016C19.3332 7.35378 19.4736 7.69292 19.7237 7.94297C19.9737 8.19302 20.3129 8.3335 20.6665 8.3335C21.0201 8.3335 21.3593 8.19302 21.6093 7.94297C21.8594 7.69292 21.9998 7.35378 21.9998 7.00016V5.66683H23.3332C23.6868 5.66683 24.0259 5.80731 24.276 6.05735C24.526 6.3074 24.6665 6.64654 24.6665 7.00016V11.0002ZM7.33317 19.0002C7.59688 19.0002 7.85467 18.922 8.07393 18.7755C8.2932 18.6289 8.46409 18.4207 8.56501 18.1771C8.66593 17.9334 8.69233 17.6653 8.64088 17.4067C8.58944 17.1481 8.46245 16.9105 8.27598 16.724C8.08951 16.5375 7.85193 16.4106 7.59329 16.3591C7.33465 16.3077 7.06656 16.3341 6.82293 16.435C6.57929 16.5359 6.37105 16.7068 6.22454 16.9261C6.07804 17.1453 5.99984 17.4031 5.99984 17.6668C5.99984 18.0205 6.14031 18.3596 6.39036 18.6096C6.64041 18.8597 6.97955 19.0002 7.33317 19.0002ZM7.33317 24.3335C7.59688 24.3335 7.85467 24.2553 8.07393 24.1088C8.2932 23.9623 8.46409 23.754 8.56501 23.5104C8.66593 23.2668 8.69233 22.9987 8.64088 22.74C8.58944 22.4814 8.46245 22.2438 8.27598 22.0574C8.08951 21.8709 7.85193 21.7439 7.59329 21.6924C7.33465 21.641 7.06656 21.6674 6.82293 21.7683C6.57929 21.8692 6.37105 22.0401 6.22454 22.2594C6.07804 22.4787 5.99984 22.7365 5.99984 23.0002C5.99984 23.3538 6.14031 23.6929 6.39036 23.943C6.64041 24.193 6.97955 24.3335 7.33317 24.3335Z" fill="#FBAA5A"/>
</svg>
