<svg width="28" height="28" viewBox="0 0 28 28" fill="none" xmlns="http://www.w3.org/2000/svg">
<path d="M23.8 8.4H22.4V4.2C22.4 3.08609 21.9575 2.0178 21.1698 1.23015C20.3822 0.442499 19.3139 0 18.2 0L4.2 0C3.08609 0 2.0178 0.442499 1.23015 1.23015C0.442499 2.0178 0 3.08609 0 4.2L0 21C0.00137967 21.2764 0.084543 21.5462 0.239009 21.7754C0.393476 22.0046 0.612333 22.183 0.868 22.288C1.03415 22.3664 1.21635 22.4047 1.4 22.4C1.58425 22.4011 1.7669 22.3658 1.93747 22.2961C2.10804 22.2264 2.26318 22.1238 2.394 21.994L6.328 18.046H8.4V20.062C8.4 21.1759 8.8425 22.2442 9.63015 23.0318C10.4178 23.8195 11.4861 24.262 12.6 24.262H22.288L25.606 27.594C25.7368 27.7238 25.892 27.8264 26.0625 27.8961C26.2331 27.9657 26.4158 28.0011 26.6 28C26.7836 28.0047 26.9658 27.9664 27.132 27.888C27.3877 27.783 27.6065 27.6046 27.761 27.3754C27.9155 27.1462 27.9986 26.8764 28 26.6V12.6C28 11.4861 27.5575 10.4178 26.7698 9.63015C25.9822 8.8425 24.9139 8.4 23.8 8.4ZM8.4 12.6V15.246H5.754C5.56975 15.2449 5.3871 15.2802 5.21653 15.3499C5.04596 15.4196 4.89082 15.5222 4.76 15.652L2.8 17.626V4.2C2.8 3.8287 2.9475 3.4726 3.21005 3.21005C3.4726 2.9475 3.8287 2.8 4.2 2.8H18.2C18.5713 2.8 18.9274 2.9475 19.1899 3.21005C19.4525 3.4726 19.6 3.8287 19.6 4.2V8.4H12.6C11.4861 8.4 10.4178 8.8425 9.63015 9.63015C8.8425 10.4178 8.4 11.4861 8.4 12.6ZM25.2 23.226L23.8 21.826C23.6703 21.6937 23.5157 21.5885 23.3451 21.5164C23.1745 21.4443 22.9912 21.4068 22.806 21.406H12.6C12.2287 21.406 11.8726 21.2585 11.6101 20.9959C11.3475 20.7334 11.2 20.3773 11.2 20.006V12.6C11.2 12.2287 11.3475 11.8726 11.6101 11.6101C11.8726 11.3475 12.2287 11.2 12.6 11.2H23.8C24.1713 11.2 24.5274 11.3475 24.7899 11.6101C25.0525 11.8726 25.2 12.2287 25.2 12.6V23.226Z" fill="#FBAA5A"/>
</svg>
