<svg width="23" height="28" viewBox="0 0 23 28" fill="none" xmlns="http://www.w3.org/2000/svg">
<path d="M21 5.6H16.8V1.4C16.8 1.0287 16.6525 0.672601 16.3899 0.41005C16.1274 0.1475 15.7713 0 15.4 0C15.0287 0 14.6726 0.1475 14.4101 0.41005C14.1475 0.672601 14 1.0287 14 1.4V5.6H8.4V1.4C8.4 1.0287 8.2525 0.672601 7.98995 0.41005C7.7274 0.1475 7.3713 0 7 0C6.6287 0 6.2726 0.1475 6.01005 0.41005C5.7475 0.672601 5.6 1.0287 5.6 1.4V5.6H1.4C1.0287 5.6 0.672602 5.7475 0.410051 6.01005C0.1475 6.2726 0 6.6287 0 7C0 7.3713 0.1475 7.7274 0.410051 7.98995C0.672602 8.2525 1.0287 8.4 1.4 8.4H2.8V15.4C2.79893 15.5842 2.83425 15.7669 2.90392 15.9375C2.97359 16.108 3.07625 16.2632 3.206 16.394L7 20.174V26.6C7 26.9713 7.1475 27.3274 7.41005 27.59C7.6726 27.8525 8.0287 28 8.4 28C8.7713 28 9.1274 27.8525 9.38995 27.59C9.6525 27.3274 9.8 26.9713 9.8 26.6V21H12.6V26.6C12.6 26.9713 12.7475 27.3274 13.0101 27.59C13.2726 27.8525 13.6287 28 14 28C14.3713 28 14.7274 27.8525 14.9899 27.59C15.2525 27.3274 15.4 26.9713 15.4 26.6V20.174L19.194 16.394C19.3238 16.2632 19.4264 16.108 19.4961 15.9375C19.5658 15.7669 19.6011 15.5842 19.6 15.4V8.4H21C21.3713 8.4 21.7274 8.2525 21.99 7.98995C22.2525 7.7274 22.4 7.3713 22.4 7C22.4 6.6287 22.2525 6.2726 21.99 6.01005C21.7274 5.7475 21.3713 5.6 21 5.6ZM16.8 14.826L13.426 18.2H8.974L5.6 14.826V8.4H16.8V14.826ZM9.8 15.4H12.6C12.9713 15.4 13.3274 15.2525 13.5899 14.9899C13.8525 14.7274 14 14.3713 14 14C14 13.6287 13.8525 13.2726 13.5899 13.0101C13.3274 12.7475 12.9713 12.6 12.6 12.6H9.8C9.4287 12.6 9.0726 12.7475 8.81005 13.0101C8.5475 13.2726 8.4 13.6287 8.4 14C8.4 14.3713 8.5475 14.7274 8.81005 14.9899C9.0726 15.2525 9.4287 15.4 9.8 15.4Z" fill="#FBAA5A"/>
</svg>
