<svg width="22" height="28" viewBox="0 0 22 28" fill="none" xmlns="http://www.w3.org/2000/svg">
<path d="M19.0002 15.5732V11.3332C18.9982 9.444 18.3278 7.61646 17.1076 6.1742C15.8875 4.73194 14.1962 3.76803 12.3335 3.45317V1.99984C12.3335 1.64622 12.193 1.30708 11.943 1.05703C11.6929 0.80698 11.3538 0.666504 11.0002 0.666504C10.6465 0.666504 10.3074 0.80698 10.0574 1.05703C9.80731 1.30708 9.66683 1.64622 9.66683 1.99984V3.45317C7.80408 3.76803 6.11286 4.73194 4.89268 6.1742C3.67249 7.61646 3.00208 9.444 3.00016 11.3332V15.5732C2.2221 15.8483 1.54816 16.3573 1.07075 17.0304C0.593334 17.7036 0.335815 18.5079 0.333496 19.3332V21.9998C0.333496 22.3535 0.473972 22.6926 0.724021 22.9426C0.974069 23.1927 1.31321 23.3332 1.66683 23.3332H5.8535C6.16054 24.463 6.83083 25.4604 7.76096 26.1715C8.69108 26.8826 9.82936 27.2678 11.0002 27.2678C12.171 27.2678 13.3092 26.8826 14.2394 26.1715C15.1695 25.4604 15.8398 24.463 16.1468 23.3332H20.3335C20.6871 23.3332 21.0263 23.1927 21.2763 22.9426C21.5264 22.6926 21.6668 22.3535 21.6668 21.9998V19.3332C21.6645 18.5079 21.407 17.7036 20.9296 17.0304C20.4522 16.3573 19.7782 15.8483 19.0002 15.5732ZM5.66683 11.3332C5.66683 9.91868 6.22873 8.56213 7.22893 7.56193C8.22912 6.56174 9.58567 5.99984 11.0002 5.99984C12.4146 5.99984 13.7712 6.56174 14.7714 7.56193C15.7716 8.56213 16.3335 9.91868 16.3335 11.3332V15.3332H5.66683V11.3332ZM11.0002 24.6665C10.5348 24.6637 10.0783 24.5391 9.67594 24.3052C9.27361 24.0713 8.93951 23.7362 8.70683 23.3332H13.2935C13.0608 23.7362 12.7267 24.0713 12.3244 24.3052C11.9221 24.5391 11.4655 24.6637 11.0002 24.6665ZM19.0002 20.6665H3.00016V19.3332C3.00016 18.9795 3.14064 18.6404 3.39069 18.3904C3.64074 18.1403 3.97987 17.9998 4.3335 17.9998H17.6668C18.0205 17.9998 18.3596 18.1403 18.6096 18.3904C18.8597 18.6404 19.0002 18.9795 19.0002 19.3332V20.6665Z" fill="#FBAA5A"/>
</svg>
