<svg width="28" height="17" viewBox="0 0 28 17" fill="none" xmlns="http://www.w3.org/2000/svg">
<path d="M1.4 0C1.12311 0 0.852431 0.0821087 0.622203 0.235943C0.391974 0.389777 0.212532 0.608427 0.106569 0.864243C0.000606594 1.12006 -0.0271181 1.40155 0.0269012 1.67313C0.0809205 1.9447 0.214258 2.19416 0.410051 2.38995C0.605845 2.58574 0.855301 2.71908 1.12687 2.7731C1.39845 2.82712 1.67994 2.79939 1.93576 2.69343C2.19157 2.58747 2.41022 2.40803 2.56406 2.1778C2.71789 1.94757 2.8 1.67689 2.8 1.4C2.8 1.0287 2.6525 0.672602 2.38995 0.410051C2.1274 0.1475 1.7713 0 1.4 0ZM7 2.8H26.6C26.9713 2.8 27.3274 2.6525 27.59 2.38995C27.8525 2.1274 28 1.7713 28 1.4C28 1.0287 27.8525 0.672602 27.59 0.410051C27.3274 0.1475 26.9713 0 26.6 0L7 0C6.6287 0 6.2726 0.1475 6.01005 0.410051C5.7475 0.672602 5.6 1.0287 5.6 1.4C5.6 1.7713 5.7475 2.1274 6.01005 2.38995C6.2726 2.6525 6.6287 2.8 7 2.8ZM7 7C6.72311 7 6.45243 7.08211 6.2222 7.23594C5.99197 7.38978 5.81253 7.60843 5.70657 7.86424C5.60061 8.12006 5.57288 8.40155 5.6269 8.67313C5.68092 8.9447 5.81426 9.19416 6.01005 9.38995C6.20584 9.58574 6.4553 9.71908 6.72687 9.7731C6.99845 9.82712 7.27994 9.79939 7.53576 9.69343C7.79157 9.58747 8.01022 9.40803 8.16406 9.1778C8.31789 8.94757 8.4 8.67689 8.4 8.4C8.4 8.0287 8.2525 7.6726 7.98995 7.41005C7.7274 7.1475 7.3713 7 7 7ZM12.6 14C12.3231 14 12.0524 14.0821 11.8222 14.2359C11.592 14.3898 11.4125 14.6084 11.3066 14.8642C11.2006 15.1201 11.1729 15.4016 11.2269 15.6731C11.2809 15.9447 11.4143 16.1942 11.6101 16.3899C11.8058 16.5857 12.0553 16.7191 12.3269 16.7731C12.5984 16.8271 12.8799 16.7994 13.1358 16.6934C13.3916 16.5875 13.6102 16.408 13.7641 16.1778C13.9179 15.9476 14 15.6769 14 15.4C14 15.0287 13.8525 14.6726 13.59 14.41C13.3274 14.1475 12.9713 14 12.6 14ZM26.6 7H12.6C12.2287 7 11.8726 7.1475 11.6101 7.41005C11.3475 7.6726 11.2 8.0287 11.2 8.4C11.2 8.7713 11.3475 9.1274 11.6101 9.38995C11.8726 9.6525 12.2287 9.8 12.6 9.8H26.6C26.9713 9.8 27.3274 9.6525 27.59 9.38995C27.8525 9.1274 28 8.7713 28 8.4C28 8.0287 27.8525 7.6726 27.59 7.41005C27.3274 7.1475 26.9713 7 26.6 7ZM26.6 14H18.2C17.8287 14 17.4726 14.1475 17.2101 14.41C16.9475 14.6726 16.8 15.0287 16.8 15.4C16.8 15.7713 16.9475 16.1274 17.2101 16.3899C17.4726 16.6525 17.8287 16.8 18.2 16.8H26.6C26.9713 16.8 27.3274 16.6525 27.59 16.3899C27.8525 16.1274 28 15.7713 28 15.4C28 15.0287 27.8525 14.6726 27.59 14.41C27.3274 14.1475 26.9713 14 26.6 14Z" fill="#FBAA5A"/>
</svg>
